<svg width="128" height="24" viewBox="0 0 128 24" fill="none" xmlns="http://www.w3.org/2000/svg">
<path d="M104.453 18.9095C104.682 18.9203 104.821 19.1221 104.821 19.3239C104.821 19.5506 104.614 19.6944 104.504 19.7309L104.793 20.3506H104.538L104.235 19.7179H103.892V20.3506H103.626V18.9095H104.453ZM103.892 19.5184H104.406C104.547 19.479 104.56 19.4046 104.564 19.3095C104.568 19.2165 104.479 19.1113 104.388 19.1113H103.892V19.5184Z" fill="white"/>
<path d="M104.174 20.8972C104.872 20.8972 105.437 20.3319 105.437 19.6344C105.437 18.9366 104.872 18.3708 104.174 18.3708C103.476 18.3708 102.911 18.9366 102.911 19.6344C102.911 20.3319 103.476 20.8972 104.174 20.8972ZM103.116 19.6243C103.116 19.0405 103.588 18.5667 104.174 18.5667C104.758 18.5667 105.23 19.0405 105.23 19.6243C105.23 20.209 104.758 20.6826 104.174 20.6826C103.588 20.6826 103.116 20.209 103.116 19.6243Z" fill="white"/>
<path d="M7.74188 21.1576L62.8342 22.5766L117.928 21.1576V20.5087L62.8342 19.0878L7.74188 20.5087V21.1576Z" fill="#F6D900"/>
<path d="M26.8109 2.24133H32.0714V12.0225H38.6858V14.8647H26.8109V2.24133Z" fill="#343E8B"/>
<path d="M93.4775 15.3711C89.3784 15.3711 85.9301 14.1512 85.9301 10.7911V2.2413H91.0211V10.401C91.0211 11.9802 92.1881 12.7015 93.4775 12.7015C94.7683 12.7015 95.9339 11.9802 95.9339 10.401V2.2413H101.024V10.7911C101.024 14.1512 97.5782 15.3711 93.4775 15.3711Z" fill="#343E8B"/>
<path d="M111.691 5.59769H117.072C116.79 2.69849 112.709 1.83264 109.546 1.83264C106.385 1.83264 102.267 2.86663 102.267 6.02935C102.267 8.34034 104.527 9.07947 106.114 9.40073C107.239 9.6277 109.115 9.94752 110.054 10.1542C111.36 10.4398 112.035 10.7053 112.035 11.475C112.035 12.2979 111.276 12.7188 109.718 12.7188C108.24 12.7188 107.357 12.2593 107.112 11.2175L101.629 11.2183C101.951 14.6572 106.357 15.4091 109.834 15.4091C113.333 15.4091 117.515 14.5763 117.515 11.1682C117.515 9.31776 116.323 8.08642 113.389 7.49966C111.854 7.19273 109.725 6.79276 108.906 6.65184C107.822 6.46279 107.435 6.07214 107.435 5.53913C107.435 4.98967 107.962 4.41278 109.482 4.41278C110.767 4.41278 111.462 4.78786 111.691 5.59769Z" fill="#343E8B"/>
<path d="M80.2185 10.2173C84.0065 10.2173 84.9704 7.80817 84.9704 6.26887C84.9704 4.85212 84.1554 2.24133 80.2236 2.24133H70.0403L70.0409 14.8647H75.0396V10.2173L80.2185 10.2173ZM75.0389 7.46113V4.999H78.376C79.2076 4.999 79.9187 5.38739 79.9187 6.18961C79.9187 6.89644 79.5102 7.46113 78.3697 7.46113H75.0389Z" fill="#343E8B"/>
<path d="M45.0137 2.54881L45.1569 2.24133H50.4347L44.9429 10.6145V14.8647H39.95V10.6145L34.4763 2.24133H39.7353L39.882 2.54881L42.2618 6.7283C42.4185 6.99662 42.4658 6.99662 42.639 6.7283L45.0137 2.54881Z" fill="#343E8B"/>
<path d="M60.9758 14.8647L61.0688 14.6134L63.7506 8.37682C63.82 8.21293 63.9817 8.25675 63.9839 8.40061V14.8647H68.2899V2.2413H63.0858L62.99 2.51312L59.7823 9.75426C59.6641 10.029 59.5539 10.0277 59.4358 9.75426L56.2296 2.51312L56.1337 2.2413H50.9289V14.8647H55.2372V8.40061C55.238 8.25675 55.3996 8.21293 55.4698 8.37682L58.1488 14.6134L58.2439 14.8647H60.9758Z" fill="#343E8B"/>
<path d="M25.6223 8.55376C25.6223 12.7946 21.9444 15.3482 16.8141 15.3482C11.6838 15.3482 8.00592 12.7946 8.00592 8.55376C8.00592 4.31063 11.6838 1.75821 16.8141 1.75821C21.9445 1.75821 25.6223 4.31064 25.6223 8.55376ZM20.3266 8.55376C20.3266 5.99995 19.005 4.42356 16.8141 4.42356C14.6224 4.42356 13.3024 5.99995 13.3024 8.55376C13.3024 11.1067 14.6224 12.6823 16.8141 12.6823C19.005 12.6823 20.3266 11.1067 20.3266 8.55376Z" fill="#343E8B"/>
<path d="M119.103 2.05515C119.372 2.06728 119.535 2.30481 119.535 2.54173C119.535 2.80724 119.292 2.9762 119.163 3.01981L119.502 3.74673H119.203L118.847 3.00397H118.444V3.74673H118.133V2.05515H119.103ZM118.444 2.77007H119.048C119.214 2.72344 119.229 2.63622 119.234 2.52465C119.238 2.41515 119.133 2.29124 119.028 2.29124H118.444V2.77007Z" fill="#343E8B"/>
<path d="M118.775 4.38789C119.595 4.38789 120.258 3.7246 120.258 2.90599C120.258 2.08677 119.595 1.42334 118.775 1.42334C117.956 1.42334 117.293 2.08677 117.293 2.90599C117.293 3.7246 117.956 4.38789 118.775 4.38789ZM117.534 2.89448C117.534 2.20828 118.089 1.6523 118.775 1.6523C119.461 1.6523 120.016 2.20828 120.016 2.89448C120.016 3.57998 119.461 4.13596 118.775 4.13596C118.089 4.13596 117.534 3.57998 117.534 2.89448Z" fill="#343E8B"/>
</svg>
