<svg width="79" height="20" viewBox="0 0 79 20" fill="none" xmlns="http://www.w3.org/2000/svg">
<g clip-path="url(#clip0_12_94)">
<path fill-rule="evenodd" clip-rule="evenodd" d="M4.54711 8.33082L10.707 0.592285H16.3034L9.17871 9.49109L16.6532 19.6103H10.707L4.54711 11.1382V19.6103H0V0.592285H4.54711V8.33082Z" fill="#DA0029"/>
<path fill-rule="evenodd" clip-rule="evenodd" d="M68.7639 11.2618L73.2424 5.6204H78.2517L72.88 12.2908L78.7277 19.6103H73.2001L68.7639 13.9768V19.6103H64.2166V0H68.7639V11.2618Z" fill="#DA0029"/>
<path fill-rule="evenodd" clip-rule="evenodd" d="M23.1187 5.16541C28.1142 5.16541 30.7901 8.48718 30.7901 12.5825C30.7901 16.6784 28.1544 20 23.1187 20C18.0829 20 15.447 16.6784 15.447 12.5825C15.447 8.48718 18.1229 5.16541 23.1187 5.16541ZM23.1187 8.68395C25.3875 8.68395 26.6024 10.43 26.6024 12.5825C26.6024 14.7352 25.4053 16.4808 23.1187 16.4808C20.8316 16.4808 19.6345 14.7352 19.6345 12.5825C19.6345 10.43 20.8492 8.68395 23.1187 8.68395Z" fill="#DA0029"/>
<path fill-rule="evenodd" clip-rule="evenodd" d="M39.6837 5.16542C40.917 5.16542 42.0519 5.49141 42.9151 6.04127V0H47.2713V12.5825C47.2713 16.6785 44.6915 20 39.6837 20C34.676 20 32.0552 16.6785 32.0552 12.5825C32.0552 8.4872 34.7157 5.16542 39.6837 5.16542ZM39.6837 8.68396C41.9408 8.68396 43.1485 10.43 43.1485 12.5825C43.1485 14.7352 41.9582 16.4808 39.6837 16.4808C37.4099 16.4808 36.2192 14.7352 36.2192 12.5825C36.2192 10.43 37.4273 8.68396 39.6837 8.68396Z" fill="#DA0029"/>
<path fill-rule="evenodd" clip-rule="evenodd" d="M48.6164 14.9482C48.6164 11.4003 51.105 10.4795 55.1522 10.4795H58.4229C58.4229 8.84208 57.295 8.31164 55.189 8.31164C53.3375 8.31164 51.68 8.66745 50.9546 9.11362V5.81467C52.1923 5.29236 54.3837 5.10486 55.9637 5.10486C60.0768 5.10486 62.3208 6.78992 62.3208 10.7214V14.8271C62.3208 17.7269 59.6553 20 55.5677 20C51.1337 20 48.6164 18.0992 48.6164 14.9482ZM52.514 14.7675C52.514 13.5948 53.5216 13.2518 55.2672 13.2518H58.4229V14.7268C58.4229 15.7104 57.2735 16.4808 55.5107 16.4808C53.5993 16.4808 52.514 15.867 52.514 14.7675Z" fill="#DA0029"/>
</g>
<defs>
<clipPath id="clip0_12_94">
<rect width="78.7277" height="20" fill="white"/>
</clipPath>
</defs>
</svg>
