<svg width="79" height="20" viewBox="0 0 79 20" fill="none" xmlns="http://www.w3.org/2000/svg">
<path fill-rule="evenodd" clip-rule="evenodd" d="M60.0597 9.69461C59.5158 8.30431 58.2009 7.23167 56.7955 6.88409C52.9426 5.85653 48.0618 6.26478 45.4022 9.48311C43.861 11.4624 42.9548 14.4393 44.1029 16.9478C44.6624 18.4135 46.2182 19.4709 47.6839 19.7431C50.9179 20.1661 55.0879 20.3477 57.6874 17.9753C60.1195 15.9505 60.936 12.5658 60.0597 9.69461ZM52.0819 15.648C51.7192 15.7837 51.1298 15.8444 50.7974 15.5874C50.0264 15.164 50.283 14.2122 50.3735 13.5773C50.7363 12.3985 51.1445 10.7365 52.6102 10.5098C53.0918 10.4631 53.698 10.6762 53.8948 11.2353C54.0304 12.9429 53.5401 14.6795 52.0819 15.648ZM17.0287 0L14.3087 7.8889L12.241 0H6.74633L0 19.259H6.41982L8.97713 11.9149L10.8814 19.259H16.7026L23.4485 0H17.0287ZM27.6741 5.74573C28.8074 5.57932 30.001 5.217 30.6207 4.09844C31.0741 3.20696 30.9081 2.1339 30.3642 1.34859C29.4879 0.426779 28.2787 0.336199 26.9946 0.411612C25.8158 0.578027 24.6222 1.16701 24.1992 2.39089C24.0029 3.16146 24.048 4.09844 24.562 4.71775C25.317 5.63999 26.5413 5.77565 27.6741 5.74573ZM22.9977 7.03576L18.7 19.2767H24.7933L29.091 7.03576H22.9977Z" fill="black"/>
<path fill-rule="evenodd" clip-rule="evenodd" d="M46.5645 7.01849H39.4921L35.9557 11.1527L39.8182 0H33.6162L26.8703 19.259H33.0723L34.8131 14.4174L35.7927 19.259H42.2668L41.1782 13.3835L46.5645 7.01849ZM74.4135 6.8723C71.694 6.8723 69.8984 8.06922 68.9737 8.88528L69.6806 7.03534H63.2612L58.9627 19.2763H65.3825L67.4502 13.4008C67.7759 12.4761 68.3198 12.0404 69.245 12.0404C70.1702 12.0404 70.388 12.9652 70.1154 13.7269L68.1572 19.2763H74.3592L77.1339 11.3331C77.896 9.15702 77.1339 6.8723 74.4135 6.8723ZM77.5438 16.7123C77.3757 16.7117 77.2091 16.7443 77.0536 16.8082C76.898 16.872 76.7566 16.9659 76.6374 17.0845C76.5182 17.203 76.4235 17.3439 76.3587 17.4991C76.294 17.6543 76.2605 17.8207 76.2601 17.9888C76.2598 18.1575 76.2927 18.3246 76.3571 18.4805C76.4215 18.6364 76.5161 18.7781 76.6353 18.8974C76.7546 19.0167 76.8962 19.1113 77.0521 19.1757C77.208 19.2402 77.3751 19.2732 77.5438 19.2729C77.712 19.2727 77.8786 19.2393 78.0339 19.1746C78.1892 19.1099 78.3302 19.0152 78.4488 18.8959C78.5674 18.7766 78.6614 18.6351 78.7252 18.4794C78.789 18.3238 78.8215 18.157 78.8208 17.9888C78.8208 17.8211 78.7877 17.6551 78.7236 17.5002C78.6594 17.3453 78.5653 17.2045 78.4467 17.086C78.3282 16.9675 78.1874 16.8734 78.0325 16.8093C77.8775 16.7452 77.7115 16.7122 77.5438 16.7123ZM77.5438 19.1187C77.3955 19.1189 77.2487 19.0898 77.1117 19.033C76.9747 18.9762 76.8503 18.893 76.7456 18.788C76.641 18.683 76.558 18.5583 76.5017 18.4212C76.4453 18.284 76.4166 18.1371 76.4172 17.9888C76.4174 17.8411 76.4466 17.6948 76.5033 17.5584C76.56 17.422 76.643 17.2981 76.7477 17.1938C76.8523 17.0895 76.9765 17.0069 77.1131 16.9506C77.2497 16.8944 77.3961 16.8656 77.5438 16.866C77.8415 16.8661 78.127 16.9845 78.3375 17.195C78.5479 17.4056 78.6662 17.6911 78.6662 17.9888C78.6669 18.1368 78.6384 18.2834 78.5823 18.4203C78.5263 18.5572 78.4438 18.6817 78.3395 18.7867C78.2352 18.8917 78.1113 18.975 77.9747 19.032C77.8382 19.089 77.6918 19.1185 77.5438 19.1187Z" fill="black"/>
<path fill-rule="evenodd" clip-rule="evenodd" d="M78.2011 17.6543C78.2011 17.5334 78.1467 17.4061 78.0397 17.3459C77.9327 17.2823 77.8118 17.2755 77.6917 17.2755H77.0682V18.7067H77.2426V18.0465H77.5645L77.9736 18.7067H78.1808L77.749 18.0465C78.0026 18.0398 78.2011 17.9357 78.2011 17.6543ZM77.5101 17.907H77.2426V17.4011H77.6517C77.8286 17.4011 78.0237 17.4276 78.0237 17.6492C78.0233 17.9403 77.7115 17.907 77.5101 17.907Z" fill="black"/>
</svg>
