<svg width="133" height="21" viewBox="0 0 133 21" fill="none" xmlns="http://www.w3.org/2000/svg">
<mask id="mask0_16_159" style="mask-type:luminance" maskUnits="userSpaceOnUse" x="0" y="0" width="133" height="21">
<path d="M0.995178 0.411561H132.649V20.4116H0.995178V0.411561Z" fill="white"/>
</mask>
<g mask="url(#mask0_16_159)">
<path d="M129.836 18.1438C128.787 19.2468 127.598 19.9044 126.106 20.2047C125.099 20.4083 124.217 20.4511 123.193 20.345C121.837 20.2055 120.717 19.7697 119.625 18.9528C118.733 18.2873 118.093 17.567 117.535 16.602C117.103 15.8548 116.852 15.156 116.713 14.305C116.517 13.1244 116.569 12.0857 116.879 10.9312C117.589 8.30543 119.564 6.44424 122.227 5.8904C123.747 5.57426 125.099 5.60674 126.602 5.99499C127.672 6.27151 128.523 6.7374 129.332 7.49091C129.843 7.96473 130.206 8.44092 130.528 9.05736C130.909 9.78631 131.063 10.4947 131.019 11.3155H126.271C126.168 10.6793 125.863 10.1722 125.35 9.78234C124.686 9.27604 123.83 9.23563 123.12 9.67459C122.635 9.97647 122.316 10.3869 122.144 10.9312C121.735 12.2283 121.717 13.435 122.082 14.7447C122.237 15.2954 122.498 15.7272 122.914 16.1202C123.389 16.5734 123.981 16.7596 124.631 16.6638C125.033 16.6051 125.36 16.4292 125.631 16.1242C125.916 15.8096 126.078 15.4721 126.153 15.0545C126.205 14.7606 126.234 14.5118 126.25 14.2139H131.256C131.356 15.7233 130.877 17.0488 129.836 18.1438Z" fill="#0056A8"/>
</g>
<path d="M110.698 4.17297H115.891V0.504429H110.698V4.17297Z" fill="#0056A8"/>
<path d="M110.698 19.946H115.891V6.05866H110.698V19.946Z" fill="#0056A8"/>
<path d="M99.9402 7.52431C100.623 6.92689 101.274 6.50537 102.098 6.12426C103.44 5.50465 104.781 5.40402 106.2 5.81842C107.722 6.2645 108.819 7.33494 109.299 8.84751C109.53 9.57408 109.63 10.219 109.63 10.9813V19.9442H104.114V11.8837C104.114 11.6143 104.082 11.3861 104.001 11.1278C103.86 10.6651 103.554 10.3244 103.107 10.1358C102.129 9.72066 101.018 10.0883 100.481 11.0042C100.257 11.3861 100.155 11.7625 100.155 12.2062V19.9442H94.813V6.05612H99.8245L99.9402 7.52431Z" fill="#0056A8"/>
<path d="M38.5188 7.52431C39.2018 6.92689 39.8531 6.50537 40.6755 6.12426C42.0177 5.50465 43.36 5.40402 44.7782 5.81842C46.3011 6.2645 47.3977 7.33494 47.8779 8.84751C48.1084 9.57408 48.2083 10.219 48.2083 10.9813V19.9442H42.6928V11.8837C42.6928 11.6143 42.6587 11.3861 42.5803 11.1278C42.4377 10.6651 42.1318 10.3244 41.6842 10.1358C40.7072 9.72066 39.5956 10.0883 39.06 11.0042C38.8349 11.3861 38.7327 11.7625 38.7327 12.2062V19.9442H33.3916V6.05612H38.4023L38.5188 7.52431Z" fill="#0056A8"/>
<mask id="mask1_16_159" style="mask-type:luminance" maskUnits="userSpaceOnUse" x="0" y="0" width="133" height="21">
<path d="M0.995178 0.411561H132.649V20.4116H0.995178V0.411561Z" fill="white"/>
</mask>
<g mask="url(#mask1_16_159)">
<path d="M71.2513 14.8398C71.649 14.9072 71.9818 14.9904 72.3637 15.1179C72.683 15.2225 72.9025 15.4697 72.9722 15.797C73.0483 16.1543 72.9477 16.4934 72.691 16.7509C72.4303 17.0148 72.1332 17.1669 71.7671 17.224C71.2774 17.3024 70.8432 17.262 70.3766 17.0924C70.1507 17.0116 69.9717 16.9094 69.7863 16.7565C69.5478 16.5552 69.3941 16.3247 69.3014 16.0268C69.2237 15.774 69.1928 15.5506 69.1976 15.2859H64.1116V15.5823C64.1116 16.0608 64.1861 16.4665 64.354 16.9142C64.6092 17.5877 64.9586 18.1082 65.4863 18.5995C66.1748 19.2436 66.8935 19.6453 67.7991 19.9044C69.6793 20.4401 71.3725 20.5462 73.305 20.2499C74.2115 20.1112 74.9594 19.8672 75.7747 19.4449C76.1337 19.2587 76.4213 19.0661 76.7311 18.8063C78.105 17.6526 78.6145 15.8921 78.0654 14.1846C77.8578 13.5412 77.5298 13.0452 77.0187 12.6015C76.3183 11.9946 75.6091 11.6079 74.7186 11.348C74.5236 11.2918 74.3572 11.2442 74.1607 11.1903C73.0713 10.8877 72.1355 10.688 71.0168 10.5216C70.7173 10.4772 70.4653 10.4289 70.1698 10.36C70.0335 10.3275 69.9202 10.2895 69.7934 10.2316C69.4804 10.0906 69.3418 9.72215 69.4828 9.40997C69.4907 9.39333 69.4979 9.37828 69.5066 9.36243C69.6746 9.06213 69.9233 8.86643 70.2514 8.77056C70.8322 8.60258 71.367 8.61684 71.9367 8.81096C72.4834 8.99716 72.8265 9.49871 72.8027 10.0763H77.7033C77.6985 9.47415 77.6066 8.96547 77.4038 8.39974C77.1962 7.82609 76.8808 7.38952 76.4015 7.01157C75.9847 6.68038 75.5893 6.45535 75.0925 6.26282C74.6092 6.07503 74.1829 5.95777 73.6719 5.86823C72.4572 5.65906 71.4121 5.59805 70.1824 5.67094C69.4796 5.71135 68.887 5.79851 68.1992 5.95935C67.2738 6.17724 66.5282 6.53459 65.7802 7.12091C65.1448 7.61929 64.7288 8.20166 64.4626 8.96388C64.3413 9.30934 64.2835 9.61598 64.2677 9.97966C64.2399 10.589 64.3279 11.1079 64.5537 11.6745C64.9578 12.6886 65.6756 13.4073 66.6914 13.8122C67.2056 14.0174 67.6565 14.1521 68.1992 14.263C69.2689 14.4841 70.1745 14.656 71.2513 14.8398Z" fill="#0056A8"/>
</g>
<path d="M10.4576 13.9566H6.89365V9.39992H9.20964C9.64939 9.39992 10.0218 9.38962 10.4615 9.36506C11.0708 9.33178 11.5771 9.05922 11.94 8.56876C12.1326 8.30808 12.2411 8.04503 12.2871 7.72334C12.3251 7.45236 12.3306 7.221 12.3037 6.95002C12.2047 5.93583 11.3648 5.17519 10.3466 5.17519H6.89365V19.9451H0.993927V0.502798H10.6374C11.0209 0.502798 11.345 0.509928 11.7277 0.531321C14.2861 0.668395 16.3937 2.08905 17.4777 4.41059C18.0418 5.6189 18.2335 6.78046 18.0885 8.10683C17.7827 10.899 15.8296 13.0708 13.0857 13.6722C12.1761 13.8719 11.3886 13.9566 10.4576 13.9566Z" fill="#0056A8"/>
<path d="M87.9093 5.79165C87.3602 5.70449 86.8911 5.66884 86.3357 5.66884C85.7795 5.66884 85.3112 5.70449 84.7613 5.79165C83.1672 6.04124 81.8757 6.68224 80.7117 7.79943C79.4662 8.99664 78.784 10.4133 78.6279 12.1335C78.5328 13.1897 78.6144 14.1001 78.8989 15.1214C79.3346 16.6886 80.1531 17.8993 81.4446 18.8881C82.2948 19.5418 83.1402 19.9332 84.1877 20.1614C84.9317 20.3246 85.5743 20.392 86.3357 20.392C87.0963 20.392 87.7397 20.3246 88.4845 20.1614C89.5312 19.9332 90.3766 19.5418 91.2268 18.8881L88.2429 15.6364C87.7682 16.6902 86.5322 17.1601 85.4776 16.6855C84.9919 16.4668 84.6472 16.1229 84.4278 15.6364C84.2257 15.1872 84.1077 14.7846 84.0348 14.2966C83.8874 13.3212 83.904 12.4742 84.095 11.5052C84.1924 11.002 84.3604 10.5916 84.6409 10.163C85.2542 9.22721 86.5092 8.96574 87.4466 9.57822C87.6914 9.73906 87.8705 9.91813 88.0297 10.163C88.311 10.5916 88.479 11.002 88.5764 11.5052C88.765 12.4742 88.784 13.3212 88.6366 14.2966C88.563 14.7846 88.4449 15.1872 88.2429 15.6364L91.2268 18.8881C92.5191 17.8993 93.3376 16.6886 93.7726 15.1214C94.057 14.1001 94.1378 13.1897 94.0435 12.1335C93.8874 10.4133 93.2068 8.99664 91.9605 7.79943C90.7958 6.68065 89.505 6.04124 87.9093 5.79165Z" fill="#0056A8"/>
<mask id="mask2_16_159" style="mask-type:luminance" maskUnits="userSpaceOnUse" x="0" y="0" width="133" height="21">
<path d="M0.995178 0.411561H132.649V20.4116H0.995178V0.411561Z" fill="white"/>
</mask>
<g mask="url(#mask2_16_159)">
<path d="M63.5419 18.857C63.4642 17.7129 63.4206 16.7438 63.3977 15.5957C63.3676 14.0871 63.3493 12.8147 63.339 11.3068C63.3327 10.4931 63.2432 9.80616 63.0395 9.01858C62.7725 7.98617 62.168 7.20176 61.237 6.6804C60.6744 6.36584 60.1586 6.17251 59.5295 6.03623C57.5265 5.60758 55.7588 5.57192 53.7407 5.92213C53.1734 6.02038 52.7043 6.15667 52.1719 6.37693C50.9422 6.88561 50.0952 7.81264 49.7006 9.08276C49.5492 9.56846 49.5088 10.009 49.5667 10.5153C49.5778 10.608 49.6007 10.6864 49.6427 10.7712L54.3159 10.8853C54.304 10.5874 54.3429 10.3354 54.4435 10.0557C54.5964 9.62947 54.8975 9.3268 55.3238 9.1715C55.9505 8.94093 56.5543 8.93221 57.1897 9.1398C57.6073 9.27688 57.9036 9.57797 58.0336 9.99711C58.1152 10.2594 58.0748 10.5177 57.9163 10.7419C57.7784 10.94 57.6081 11.0731 57.3823 11.1595C57.2428 11.2126 57.124 11.2514 56.9813 11.2894C56.3316 11.4645 55.777 11.5849 55.1138 11.6951C54.5885 11.7814 54.1464 11.8631 53.6258 11.9692C52.9183 12.1095 52.3272 12.2648 51.6418 12.4866C51.0143 12.6895 50.5199 12.9779 50.0349 13.424C49.4042 14.0008 49.0437 14.6846 48.9233 15.5332C48.8441 16.0989 48.8623 16.5917 48.9875 17.1487C49.3147 18.5971 50.3202 19.6683 51.7472 20.0835C53.3287 20.5423 54.8127 20.467 56.3396 19.8506C57.0828 19.5519 57.6485 19.1375 58.1595 18.521L57.8299 16.1337C57.5946 16.4982 57.3022 16.747 56.9069 16.9213C56.5361 17.0853 56.2009 17.1717 55.7976 17.2129C55.4616 17.2462 55.1701 17.2216 54.8444 17.1305C54.5798 17.0576 54.373 16.934 54.1852 16.7343C54.0267 16.5632 53.9324 16.3794 53.8841 16.1512C53.8104 15.801 53.9253 15.4642 54.1987 15.2321C54.3817 15.076 54.5608 14.9714 54.785 14.889C55.3277 14.6893 55.7913 14.5396 56.3467 14.3819C57.0186 14.1925 57.5748 13.9873 58.2087 13.6957C58.2713 14.2036 58.2681 14.6386 58.1976 15.1441C58.1461 15.5149 58.0336 15.82 57.8299 16.1337L58.1595 18.521C58.2618 18.8602 58.356 19.1438 58.4717 19.4758C58.5375 19.662 58.6231 19.8062 58.753 19.9512H63.9008C63.6813 19.6065 63.5696 19.2658 63.5419 18.857Z" fill="#0056A8"/>
<path d="M32.3636 18.857C32.286 17.7129 32.2424 16.7438 32.2194 15.5957C32.1885 14.0871 32.1711 12.8147 32.1608 11.3068C32.1552 10.4931 32.0657 9.80616 31.8613 9.01858C31.5942 7.98617 30.9905 7.20176 30.0587 6.6804C29.4961 6.36584 28.9803 6.17251 28.3512 6.03623C26.3482 5.60758 24.5805 5.57192 22.5616 5.92213C21.9959 6.02038 21.5253 6.15667 20.9936 6.37693C19.7639 6.88561 18.9169 7.81264 18.5223 9.08276C18.3718 9.56846 18.3306 10.009 18.3892 10.5153C18.3995 10.608 18.4225 10.6864 18.4645 10.7712L23.1377 10.8853C23.1266 10.5874 23.1646 10.3354 23.2652 10.0557C23.4182 9.62947 23.7192 9.3268 24.1455 9.1715C24.773 8.94093 25.376 8.93221 26.0107 9.1398C26.429 9.27688 26.7261 9.57797 26.8569 9.99711C26.9369 10.2594 26.8965 10.5177 26.738 10.7419C26.5994 10.94 26.429 11.0731 26.204 11.1595C26.0645 11.2126 25.9457 11.2514 25.8023 11.2894C25.1534 11.4645 24.5979 11.5849 23.9355 11.6951C23.411 11.7814 22.9681 11.8631 22.4467 11.9692C21.74 12.1095 21.1497 12.2648 20.4627 12.4866C19.8368 12.6895 19.3424 12.9779 18.8567 13.424C18.226 14.0008 17.8663 14.6846 17.745 15.5332C17.665 16.0989 17.684 16.5917 17.81 17.1487C18.1357 18.5971 19.1427 19.6683 20.5681 20.0835C22.1512 20.5423 23.6337 20.467 25.1613 19.8506C25.9037 19.5519 26.471 19.1375 26.9821 18.521L26.6525 16.1337C26.4171 16.4982 26.124 16.747 25.7278 16.9213C25.3578 17.0853 25.0218 17.1717 24.6201 17.2129C24.2826 17.2462 23.9926 17.2216 23.6662 17.1305C23.4015 17.0576 23.1947 16.934 23.0077 16.7343C22.8485 16.5632 22.7542 16.3794 22.7058 16.1512C22.6329 15.801 22.747 15.4642 23.0204 15.2321C23.2026 15.076 23.3817 14.9714 23.6067 14.889C24.1495 14.6893 24.6138 14.5396 25.1692 14.3819C25.8411 14.1925 26.3965 13.9873 27.0312 13.6957C27.093 14.2036 27.0898 14.6386 27.0193 15.1441C26.9678 15.5149 26.8545 15.82 26.6525 16.1337L26.9821 18.521C27.0835 18.8602 27.1778 19.1438 27.2943 19.4758C27.3592 19.662 27.4448 19.8062 27.5747 19.9512H32.7225C32.5031 19.6065 32.3921 19.2658 32.3636 18.857Z" fill="#0056A8"/>
</g>
</svg>
