<svg width="121" height="20" viewBox="0 0 121 20" fill="none" xmlns="http://www.w3.org/2000/svg">
<g clip-path="url(#clip0_12_74)">
<path d="M91.5461 0.00238617V15.6559C91.5461 16.6734 92.0484 17.1958 93.0722 17.2478C93.085 17.2488 98.2304 17.2488 98.2304 17.2488V19.005C98.2304 19.201 98.1244 19.3388 97.9061 19.3388H89.5557C86.9761 19.3388 86.5946 17.9186 86.5946 16.6288V1.06645C86.5946 0.33199 86.8744 -0.0156314 87.7424 0.0034454L91.5461 0.00238617Z" fill="black"/>
<path d="M81.9228 0.00238617L81.9239 18.3193C81.9239 19.1343 81.5784 19.3388 80.8853 19.3388H76.9671V1.01346C76.9671 0.409358 77.1981 0.0034454 78.0767 0.0034454L81.9228 0.00238617Z" fill="black"/>
<path d="M0 2.66752C0 1.19331 0.00317948 -4.89428e-05 2.42487 -4.89428e-05H13.0697V1.86099C13.0697 1.99347 13.0072 2.11323 12.8217 2.11323L6.44265 2.11111C5.58525 2.11111 5.15391 2.52232 5.15391 3.38714V8.29728H12.6596L12.6606 10.2474C12.6606 10.4201 12.5525 10.5112 12.3829 10.5112H5.15391V18.302C5.13801 19.0534 4.76283 19.3523 3.93829 19.3374H0V2.66752Z" fill="black"/>
<path d="M20.7574 0.000529371V14.7394C20.7574 16.0049 20.9365 16.8919 21.8247 17.4049C23.0148 18.0938 25.0306 18.1044 26.2441 17.424C27.074 16.9608 27.3908 16.2168 27.3908 14.7437V0.982983C27.3908 0.364048 27.6272 0.000529371 28.492 0.000529371H32.3444L32.3455 14.3039C32.3455 17.6264 30.2534 18.9893 28.404 19.4949C25.9431 20.1657 22.2051 20.1763 19.8831 19.479C17.1085 18.6438 15.8123 17.0011 15.8091 14.3049L15.807 0.993581C15.807 0.35133 16.038 0.000529371 16.7767 0.000529371H20.7574Z" fill="black"/>
<path d="M114.451 0.00344743C113.474 0.00344743 112.917 0.45917 112.696 1.3314L109.541 14.665L109.455 14.6629L106.196 0.00344743H101.741C100.881 0.00344743 100.611 0.445393 100.611 1.12792V19.3388H102.493C102.796 19.3388 102.921 19.1883 102.921 18.8799V3.61108H103.219L107.248 19.3388H109.886C110.88 19.3388 111.25 18.9308 111.494 17.9483L115.11 3.61108H115.403L115.402 19.3388L118.922 19.3335C119.785 19.3335 120.18 19.0018 120.18 18.1529V0.00238819L114.451 0.00344743Z" fill="black"/>
<path d="M55.8858 10.5106H50.9322V19.3389H54.8493C55.5392 19.3389 55.8869 19.1365 55.8869 18.3194C55.8869 18.3194 55.8858 14.5432 55.8858 10.5106Z" fill="black"/>
<path d="M55.5971 6.7381C55.7709 6.59714 55.8727 6.49116 55.8854 6.18805V0.00399822H52.0393C51.1734 0.00399822 50.9328 0.426867 50.9328 1.02885V10.3913L55.5971 6.7381Z" fill="#ED1A3A"/>
<path d="M38.615 17.8093C40.7664 17.5051 41.4818 16.227 41.4818 14.3426V1.0525C41.4818 0.257634 41.9121 9.60218e-05 42.4674 9.60218e-05H46.4354V12.5664C46.4354 15.6568 45.7846 17.2179 43.9543 18.5353C43.0016 19.2189 41.3355 19.9989 37.7258 19.9989C35.6591 19.9989 34.7403 19.8823 34.6163 19.8537C34.4414 19.8134 34.3704 19.7064 34.3704 19.5548V17.9323C35.2193 17.9566 37.163 18.016 38.615 17.8093Z" fill="black"/>
<path d="M63.3905 0.000508255C60.9709 0.000508255 60.9699 1.19387 60.9699 2.66808V7.65029C60.9699 7.75309 60.9253 7.79443 60.8787 7.84L57.4905 10.5097H60.9699V19.3369H64.906C65.7306 19.3528 66.1057 19.0529 66.1195 18.3025V10.5118H73.3486C73.5181 10.5118 73.6273 10.4196 73.6273 10.2479V8.29678H66.1195V3.38663C66.1195 2.52288 66.5519 2.11061 67.4083 2.11061L73.7894 2.11273C73.9728 2.11273 74.0374 1.99403 74.0374 1.86155V0.000508255H63.3905Z" fill="black"/>
</g>
<defs>
<clipPath id="clip0_12_74">
<rect width="120.18" height="20" fill="white"/>
</clipPath>
</defs>
</svg>
