<svg width="114" height="20" viewBox="0 0 114 20" fill="none" xmlns="http://www.w3.org/2000/svg">
<g clip-path="url(#clip0_12_128)">
<path d="M86.4342 1.11819V3.34075H88.6044C89.5521 3.34075 90.175 3.9385 90.5296 4.32486C90.8137 4.64303 97.0637 11.7295 97.2137 11.9159C97.3637 12.1022 97.3637 12.1044 97.3637 12.2226V15.7342C97.3633 15.8952 97.3473 16.0557 97.3158 16.2136C97.2714 16.3156 97.2053 16.4066 97.1221 16.4804C97.0389 16.5543 96.9407 16.6091 96.8342 16.6411C96.6291 16.6669 96.4225 16.6798 96.2158 16.6797L94.0434 16.6771V18.8996H106.23V16.6771H103.936C103.731 16.6781 103.526 16.665 103.323 16.638C103.216 16.6063 103.118 16.5516 103.035 16.4778C102.952 16.404 102.887 16.3129 102.843 16.211C102.811 16.0531 102.794 15.8926 102.793 15.7315V12.2221C102.78 12.1068 102.809 11.9905 102.875 11.895L109.636 4.18148C110.257 3.49056 110.58 3.3403 111.393 3.3403H113.636V1.11774H103.593V3.33586H105.109C105.19 3.33098 105.271 3.34952 105.342 3.38928C105.413 3.42904 105.471 3.48833 105.51 3.56013C105.548 3.63194 105.565 3.71322 105.558 3.79433C105.552 3.87544 105.522 3.95296 105.473 4.01768C105.441 4.06312 101.268 8.96992 101.216 9.01768C101.164 9.06544 101.13 9.05393 101.091 9.00171C101.052 8.9494 96.9296 4.01769 96.9296 4.01769C96.6387 3.66087 96.8661 3.33587 97.207 3.33587H98.6843V1.11775L86.4342 1.11819Z" fill="#0F0F0F"/>
<path d="M56.5457 1.11816V3.34073H58.4908C59.8953 3.34073 59.9911 4.12288 59.9911 4.8047V15.2069C59.9911 15.8296 60.0272 16.6841 59.1318 16.6841H56.7316V18.9045H66.9798V16.6841H64.4798C63.482 16.6841 63.4364 16.2275 63.4251 15.257V6.34544L77.5 18.9045H81.0796L80.8909 4.72035C80.9091 3.68399 80.9728 3.33851 82.0455 3.33851H84.2885V1.11816H73.8339V3.33851H76.1297C77.1843 3.33851 77.3612 3.74535 77.3748 4.72035L77.5 12.1431L65.2819 1.11816H56.5457Z" fill="#0F0F0F"/>
<path d="M10.3977 0C8.19546 0 5.69318 0.413633 3.57955 1.36364C1.60682 2.24545 1.43251e-05 3.66124 1.43251e-05 6.00897C-0.00298335 7.23845 0.464592 8.42249 1.30683 9.31819C1.87729 9.84547 2.79788 10.7409 5.20243 11.2682C6.27743 11.4955 8.57518 11.8614 10.8638 12.1023C13.1525 12.3432 15.3707 12.5569 16.2797 12.8001C17.0025 12.9842 18.2182 13.2342 18.2182 14.5978C18.2182 15.9615 16.9388 16.3704 16.7161 16.4591C16.4934 16.5477 14.9568 17.2523 12.1977 17.2523C10.3697 17.2015 8.55819 16.89 6.81818 16.3272C5.78864 15.9591 4.70933 15.4749 3.70251 14.2454C3.29608 13.6664 3.07054 12.9799 3.05443 12.2727H0.554422V19.2729H3.33185V18.3252C3.33139 18.2549 3.34971 18.1857 3.38489 18.1248C3.42007 18.0639 3.47083 18.0135 3.53198 17.9788C3.59312 17.9441 3.66243 17.9263 3.73274 17.9272C3.80305 17.9282 3.87184 17.9479 3.93201 17.9843C5.2404 18.5536 6.60134 18.9935 7.9954 19.2978C9.45449 19.6023 10.3979 19.8229 12.2115 19.8229C14.1252 19.8593 16.0325 19.59 17.8613 19.0252C19.0758 18.6923 20.2152 18.1298 21.218 17.3682C21.7821 16.9349 22.238 16.3768 22.5499 15.7376C22.8619 15.0984 23.0213 14.3955 23.0158 13.6843C23.0255 12.333 22.504 11.0319 21.5638 10.0613C21.0409 9.55396 20.4352 9.13976 19.7727 8.83656C19.0606 8.51477 18.3213 8.25689 17.5635 8.06596C16.1226 7.71368 12.8865 7.2728 11.3388 7.11826C9.71606 6.95007 6.90005 6.71581 5.77504 6.36808C5.43414 6.26127 4.73856 5.93199 4.73856 5.12517C4.73856 4.55017 5.05678 4.06373 5.68405 3.67055C6.68178 3.04554 8.69545 2.65669 10.7955 2.65669C12.8282 2.63212 14.8442 3.02588 16.7183 3.81348C17.2217 4.03292 17.6952 4.31558 18.1272 4.65465C18.8315 5.2562 19.3192 6.07198 19.5157 6.9771H21.7592V0.884235H19.2591V1.59091C19.2591 1.81818 19.0319 2.11828 18.5773 1.87056C17.4501 1.2842 14.2818 0.015908 10.3977 0Z" fill="#0F0F0F"/>
<path d="M40.4843 0C36.5457 0 32.3636 1.36347 30 3.51119C29.0989 4.33161 28.3796 5.33158 27.8884 6.44676C27.3971 7.56195 27.1447 8.76764 27.1475 9.98624C27.1335 11.2099 27.3807 12.4224 27.8725 13.5429C28.3644 14.6634 29.0897 15.6661 30 16.4839C32.5455 18.7726 36.3638 20 40.4843 20C44.6116 20 48.5116 18.7862 50.9957 16.4839C51.8789 15.6469 52.5836 14.6396 53.0671 13.5229C53.5506 12.4062 53.803 11.2031 53.809 9.98624C53.8212 8.7706 53.577 7.56605 53.0922 6.45119C52.6074 5.33632 51.893 4.3362 50.9957 3.51607C48.3298 1.09789 44.8411 0 40.4843 0ZM40.4843 2.59988C42.6388 2.59988 44.7138 3.3751 46.1115 4.7501C47.4638 6.08191 48.1703 7.96373 48.1703 9.97736C48.1703 12.0865 47.5274 13.7955 46.1115 15.2046C44.6956 16.6137 42.6684 17.3682 40.4843 17.3682C38.3161 17.3682 36.2455 16.5978 34.8477 15.2046C34.1793 14.511 33.6544 13.6922 33.3034 12.7951C32.9524 11.898 32.7821 10.9405 32.8023 9.97736C32.8023 7.97282 33.5 6.08418 34.8477 4.7501C36.2455 3.36828 38.3297 2.59988 40.4843 2.59988Z" fill="#0F0F0F"/>
</g>
<defs>
<clipPath id="clip0_12_128">
<rect width="113.636" height="20" fill="white"/>
</clipPath>
</defs>
</svg>
