<svg width="64" height="64" viewBox="0 0 64 64" fill="none" xmlns="http://www.w3.org/2000/svg"><g clip-path="url(#bg-vibe)"><path d="M0 0h64v64H0V0z" fill="url(#a)"/><path d="M33.821 28.618H30.18a.52.52 0 00-.52.52v20.553c0 .287.233.52.52.52h3.642a.52.52 0 00.52-.52V29.138a.52.52 0 00-.52-.52zM27.231 21.333H23.59a.52.52 0 00-.52.52v20.553c0 .288.233.52.52.52h3.642a.52.52 0 00.52-.52V21.855a.52.52 0 00-.52-.52zM40.411 21.333H36.77a.52.52 0 00-.52.52v20.553c0 .288.232.52.52.52h3.642a.52.52 0 00.52-.52V21.855a.52.52 0 00-.52-.52zM20.639 14.83h-3.643a.52.52 0 00-.52.52v20.552c0 .288.233.52.52.52h3.643a.52.52 0 00.52-.52V15.35a.52.52 0 00-.52-.52zM47.004 14.83H43.36a.52.52 0 00-.52.52v20.552c0 .288.233.52.52.52h3.643a.52.52 0 00.52-.52V15.35a.52.52 0 00-.52-.52zM53.593 18.732h-3.642a.52.52 0 00-.52.52v10.146c0 .288.233.52.52.52h3.642a.52.52 0 00.52-.52V19.252a.52.52 0 00-.52-.52zM14.049 18.732h-3.643a.52.52 0 00-.52.52v10.146c0 .288.233.52.52.52h3.643a.52.52 0 00.52-.52V19.252a.52.52 0 00-.52-.52z" fill="#fff"/><path d="M33.821 28.618a.52.52 0 01.52.52v20.553a.52.52 0 01-.52.52H30.18a.52.52 0 01-.52-.52V29.138a.52.52 0 01.52-.52h3.642zm0-.26H30.18a.78.78 0 00-.78.78v20.553a.78.78 0 00.78.78h3.642a.78.78 0 00.78-.78V29.138a.78.78 0 00-.78-.78zm-6.59-7.025a.52.52 0 01.52.52v20.553a.52.52 0 01-.52.52H23.59a.52.52 0 01-.52-.52V21.855a.52.52 0 01.52-.52h3.642zm0-.26H23.59a.78.78 0 00-.78.78v20.553a.78.78 0 00.78.781h3.642a.78.78 0 00.78-.78V21.854a.78.78 0 00-.78-.78zm13.18.26a.52.52 0 01.52.52v20.553a.52.52 0 01-.52.52H36.77a.52.52 0 01-.52-.52V21.855a.52.52 0 01.52-.52h3.642zm0-.26H36.77a.78.78 0 00-.78.78v20.553a.78.78 0 00.78.781h3.642a.78.78 0 00.78-.78V21.854a.78.78 0 00-.78-.78zM20.64 14.83a.52.52 0 01.52.52v20.553a.52.52 0 01-.52.52h-3.643a.52.52 0 01-.52-.52V15.35a.52.52 0 01.52-.52h3.643zm0-.26h-3.643a.78.78 0 00-.78.78v20.553a.78.78 0 00.78.78h3.643a.78.78 0 00.78-.78V15.35a.78.78 0 00-.78-.78zm26.365.26a.52.52 0 01.52.52v20.553a.52.52 0 01-.52.52H43.36a.52.52 0 01-.52-.52V15.35a.52.52 0 01.52-.52h3.643zm0-.26H43.36a.78.78 0 00-.78.78v20.553a.78.78 0 00.78.78h3.643a.78.78 0 00.78-.78V15.35a.78.78 0 00-.78-.78zm6.59 4.163a.52.52 0 01.52.52v10.146a.52.52 0 01-.52.52H49.95a.52.52 0 01-.52-.52V19.252a.52.52 0 01.52-.52h3.642zm0-.26H49.95a.78.78 0 00-.78.78v10.146a.78.78 0 00.78.78h3.642a.78.78 0 00.781-.78V19.252a.78.78 0 00-.78-.78zm-39.545.26a.52.52 0 01.52.52v10.146a.52.52 0 01-.52.52h-3.643a.52.52 0 01-.52-.52V19.252a.52.52 0 01.52-.52h3.643zm0-.26h-3.643a.78.78 0 00-.78.78v10.146a.78.78 0 00.78.78h3.643a.78.78 0 00.78-.78V19.252a.78.78 0 00-.78-.78z" fill="#7200FF" opacity=".05"/><path d="M33.821 28.618a.52.52 0 01.52.52v20.553a.52.52 0 01-.52.52H30.18a.52.52 0 01-.52-.52V29.138a.52.52 0 01.52-.52h3.642zm0-.52H30.18a1.04 1.04 0 00-1.04 1.04v20.553a1.04 1.04 0 001.04 1.04h3.642a1.04 1.04 0 001.04-1.04V29.138a1.04 1.04 0 00-1.04-1.04zm-6.59-6.765a.52.52 0 01.52.52v20.553a.52.52 0 01-.52.52H23.59a.52.52 0 01-.52-.52V21.855a.52.52 0 01.52-.52h3.642zm0-.52H23.59a1.04 1.04 0 00-1.04 1.04v20.553a1.04 1.04 0 001.04 1.041h3.642a1.041 1.041 0 001.04-1.04V21.854a1.041 1.041 0 00-1.04-1.041zm13.18.52a.52.52 0 01.52.52v20.553a.52.52 0 01-.52.52H36.77a.52.52 0 01-.52-.52V21.855a.52.52 0 01.52-.52h3.642zm0-.52H36.77a1.04 1.04 0 00-1.04 1.04v20.553a1.041 1.041 0 001.04 1.041h3.642a1.04 1.04 0 001.04-1.04V21.854a1.04 1.04 0 00-1.04-1.041zM20.64 14.829a.52.52 0 01.52.52v20.553a.52.52 0 01-.52.52h-3.643a.52.52 0 01-.52-.52V15.35a.52.52 0 01.52-.52h3.643zm0-.52h-3.643a1.04 1.04 0 00-1.04 1.04v20.553a1.04 1.04 0 001.04 1.041h3.643a1.04 1.04 0 001.04-1.04V15.35a1.041 1.041 0 00-1.04-1.041zm26.365.52a.52.52 0 01.52.52v20.553a.52.52 0 01-.52.52H43.36a.52.52 0 01-.52-.52V15.35a.52.52 0 01.52-.52h3.643zm0-.52H43.36a1.04 1.04 0 00-1.04 1.04v20.553a1.04 1.04 0 001.04 1.041h3.643a1.04 1.04 0 001.04-1.04V15.35a1.04 1.04 0 00-1.04-1.041zm6.59 4.423a.52.52 0 01.52.52v10.146a.52.52 0 01-.52.52H49.95a.52.52 0 01-.52-.52V19.252a.52.52 0 01.52-.52h3.642zm0-.52H49.95a1.04 1.04 0 00-1.04 1.04v10.146a1.04 1.04 0 001.04 1.041h3.642a1.04 1.04 0 001.041-1.04V19.251a1.04 1.04 0 00-1.04-1.04zm-39.545.52a.52.52 0 01.52.52v10.146a.52.52 0 01-.52.52h-3.643a.52.52 0 01-.52-.52V19.252a.52.52 0 01.52-.52h3.643zm0-.52h-3.643a1.04 1.04 0 00-1.04 1.04v10.146a1.04 1.04 0 001.04 1.041h3.643a1.04 1.04 0 001.04-1.04V19.251a1.04 1.04 0 00-1.04-1.04z" fill="#7200FF" opacity=".05"/><path d="M33.821 28.618a.52.52 0 01.52.52v20.553a.52.52 0 01-.52.52H30.18a.52.52 0 01-.52-.52V29.138a.52.52 0 01.52-.52h3.642zm0-.78H30.18a1.3 1.3 0 00-1.3 1.3v20.553a1.3 1.3 0 001.3 1.3h3.642a1.301 1.301 0 001.301-1.3V29.138a1.3 1.3 0 00-1.3-1.3zm-6.59-6.505a.52.52 0 01.52.52v20.553a.52.52 0 01-.52.52H23.59a.52.52 0 01-.52-.52V21.855a.52.52 0 01.52-.52h3.642zm0-.78H23.59a1.301 1.301 0 00-1.3 1.3v20.553a1.3 1.3 0 001.3 1.301h3.642a1.3 1.3 0 001.301-1.3V21.854a1.3 1.3 0 00-1.3-1.301zm13.18.78a.52.52 0 01.52.52v20.553a.52.52 0 01-.52.52H36.77a.52.52 0 01-.52-.52V21.855a.52.52 0 01.52-.52h3.642zm0-.78H36.77a1.3 1.3 0 00-1.301 1.3v20.553a1.3 1.3 0 001.3 1.301h3.643a1.3 1.3 0 001.3-1.3V21.854a1.301 1.301 0 00-1.3-1.301zM20.64 14.829a.52.52 0 01.52.52v20.553a.52.52 0 01-.52.52h-3.643a.52.52 0 01-.52-.52V15.35a.52.52 0 01.52-.52h3.643zm0-.78h-3.643a1.3 1.3 0 00-1.3 1.3v20.553a1.301 1.301 0 001.3 1.301h3.643a1.3 1.3 0 001.3-1.3V15.35a1.3 1.3 0 00-1.3-1.301zm26.365.78a.52.52 0 01.52.52v20.553a.52.52 0 01-.52.52H43.36a.52.52 0 01-.52-.52V15.35a.52.52 0 01.52-.52h3.643zm0-.78H43.36a1.3 1.3 0 00-1.3 1.3v20.553a1.3 1.3 0 001.3 1.301h3.643a1.301 1.301 0 001.3-1.3V15.35a1.3 1.3 0 00-1.3-1.301zm6.59 4.683a.52.52 0 01.52.52v10.146a.52.52 0 01-.52.52H49.95a.52.52 0 01-.52-.52V19.252a.52.52 0 01.52-.52h3.642zm0-.78H49.95a1.301 1.301 0 00-1.3 1.3v10.146a1.301 1.301 0 001.3 1.301h3.642a1.3 1.3 0 001.301-1.3V19.251a1.3 1.3 0 00-1.3-1.3zm-39.545.78a.52.52 0 01.52.52v10.146a.52.52 0 01-.52.52h-3.643a.52.52 0 01-.52-.52V19.252a.52.52 0 01.52-.52h3.643zm0-.78h-3.643a1.301 1.301 0 00-1.3 1.3v10.146a1.3 1.3 0 001.3 1.301h3.643a1.3 1.3 0 001.3-1.3V19.251a1.3 1.3 0 00-1.3-1.3z" fill="#7200FF" opacity=".05"/></g>
<defs>
  <linearGradient id="a" x1="17.972" y1="-6.54" x2="46.028" y2="70.54" gradientUnits="userSpaceOnUse">
    <stop offset="10%" stop-color="#FF0C28"/>
    <stop offset="90%" stop-color="#7200FF"/>
  </linearGradient>
  <clipPath id="bg-vibe">
    <path fill="#fff" d="M0 0h64v64H0z"/>
  </clipPath>
</defs></svg>