<svg width="101" height="20" viewBox="0 0 101 20" fill="none" xmlns="http://www.w3.org/2000/svg">
<path d="M6.05996 19.6019V14.898H10.3665C13.9398 14.898 15.9776 13.4457 15.9776 9.93954V6.12021C15.9776 1.86491 13.974 0.323792 10.3665 0.323792H0.465317V19.6019H6.05996Z" fill="#FF0017"/>
<path d="M17.7877 19.6065V0.328674H31.1309V3.92152H23.2305V7.92358H29.9261V11.5414H23.2305V16.0366H31.1175V19.6068L17.7877 19.6065Z" fill="#FF0000"/>
<path d="M33.4346 19.6113V0.321424L38.7451 0.323741L43.486 11.705V0.323741L48.2888 0.321167V19.6088L42.741 19.6065L38.3598 8.99881V19.609L33.4346 19.6113ZM55.5131 19.6065V4.03395H49.9864V0.321682H66.7718V4.0342H61.144V19.6067H55.5128M64.4048 19.6041L70.4921 0.326057H75.2166L81.6513 19.6041H76.3873L75.4832 16.5196H70.3245L69.4647 19.6113L64.4048 19.6041ZM81.7027 19.6065L87.1777 9.50042L81.9012 0.321424H87.8343L90.5701 6.2159L93.1221 0.321424L98.6138 0.328631L93.7959 9.634L99.6935 19.6041L93.8546 19.6065L90.5945 12.9005L87.7339 19.6062L81.7027 19.6065Z" fill="#FF0017"/>
<path d="M8.62386 3.80774H6.07721V11.0778H8.24424C10.0082 11.0778 10.3783 9.93771 10.3783 9.11516L10.3752 5.52361C10.3752 4.43597 9.65152 3.80774 8.62386 3.80774ZM72.8884 6.37086L74.5773 13.1962H71.1939L72.8884 6.37086Z" fill="white"/>
</svg>
