<svg width="107" height="20" viewBox="0 0 107 20" fill="none" xmlns="http://www.w3.org/2000/svg">
<path d="M28.4507 0.96875H32.2326V18.9532H28.4507V0.96875Z" fill="#DA2128"/>
<path fill-rule="evenodd" clip-rule="evenodd" d="M91.4344 0.96875H86.0313L78.7759 18.9532H82.7116L84.1016 15.4797H92.9774L94.2895 18.9532H98.3811L91.4344 0.96875ZM88.6549 12.2379H85.3368L88.6549 4.13421L91.7431 12.2379H88.6549Z" fill="#DA2128"/>
<path fill-rule="evenodd" clip-rule="evenodd" d="M70.1309 1.04688L67.1979 11.3126L64.2649 1.04688H59.2473L56.314 18.9532H60.0969L62.0266 5.83159L65.5769 18.9532H68.8189L72.3685 5.83159L74.1448 18.9532H78.0811L75.2254 1.04688H70.1309Z" fill="#DA2128"/>
<path fill-rule="evenodd" clip-rule="evenodd" d="M21.5803 8.37857C20.0548 8.11239 17.7188 7.97466 17.4902 7.91634C17.2405 7.90112 14.7638 7.79362 13.8619 7.53044C12.3408 7.1173 12.4725 5.93516 12.4731 5.75434C12.4725 5.38198 12.3522 3.73307 16.8728 3.59384C21.3995 3.49112 24.4324 4.9598 24.4369 4.98257L25.2852 1.66416C25.2565 1.68325 22.3212 0.155341 17.1036 0.119751C13.6786 0.155342 11.5271 1.08007 10.697 1.66416C9.9653 2.17362 8.41939 3.47139 8.30507 5.75433C8.11053 8.2561 9.42735 9.73015 10.0024 10.1546C10.6434 10.6881 11.4469 10.9492 12.4731 11.1581C13.176 11.3919 15.5499 11.6652 16.0236 11.6976C17.2359 11.8338 18.7636 11.8143 20.2688 12.1616C21.5576 12.5376 21.6378 13.585 21.6582 14.014C21.6378 14.8086 21.1959 16.2963 16.8728 16.3296C12.5926 16.2963 9.3364 14.7888 9.30855 14.7851L8.61373 18.2593C8.6131 18.2865 11.628 19.6531 16.8728 19.8801C17.8587 19.8929 20.3658 19.5525 20.9628 19.3397C21.5977 19.0901 25.8996 18.045 25.9034 13.8589C25.8995 9.60294 23.0855 8.71834 21.5803 8.37857Z" fill="#DA2128"/>
<path fill-rule="evenodd" clip-rule="evenodd" d="M44.2729 8.61087V11.7757H50.5248C50.5521 11.7476 50.8442 14.3008 49.0591 15.6348C48.0089 16.303 46.4083 16.344 45.7395 16.3296C43.0024 16.344 42.2812 16.0125 41.2634 15.3261C39.389 14.2009 38.8586 11.7083 38.8706 10.1546C38.8586 7.0248 40.0072 5.75668 40.8003 5.13677C41.6486 4.44368 42.7231 3.709 45.7395 3.67104C46.7588 3.65368 47.6524 3.70213 48.8277 3.97909C50.7179 4.35059 52.6452 5.09986 52.609 5.13677L53.5352 1.97218C53.5071 1.94045 50.0602 0.210678 45.6629 0.197815C40.7532 0.210679 38.1003 1.81859 36.7086 3.67104C35.3162 5.63632 34.7435 7.22236 34.7789 10.3082C34.7435 13.2557 35.9898 15.5674 36.5543 16.2515C37.0681 16.8251 39.3669 19.8891 45.3535 19.8028C48.1882 19.7672 51.128 19.0514 52.764 17.4101C54.1079 15.9935 54.5227 14.6224 54.6937 11.7757C54.7921 10.7662 54.7036 8.58836 54.6937 8.61085L44.2729 8.61087Z" fill="#DA2128"/>
</svg>
