<svg width="96" height="20" viewBox="0 0 96 20" fill="none" xmlns="http://www.w3.org/2000/svg">
<g clip-path="url(#clip0_12_102)">
<path d="M15.6132 18.0529C11.1672 18.0529 7.56409 14.4479 7.56409 10.001C7.56409 5.55398 11.1672 1.95237 15.6132 1.95237C17.1803 1.95237 18.6434 2.3993 19.8793 3.17399L15.6132 10.001L23.6446 5.36369C22.772 3.97341 21.5205 2.77547 20.0072 1.86643C18.0816 0.713546 15.4029 6.10352e-05 12.4409 6.10352e-05C8.21565 6.10352e-05 4.50886 1.53545 2.44167 3.83476C0.91119 5.5345 0 7.67376 0 10.0009C0 12.3298 0.91119 14.4706 2.44167 16.1715C4.51423 18.4737 8.16581 20.0001 12.3213 20.0001C16.4762 20.0001 20.1267 18.4725 22.2006 16.1715C22.3142 16.0448 22.4241 15.9169 22.5281 15.7842L22.215 14.6104C20.7579 16.6903 18.3445 18.0529 15.6132 18.0529Z" fill="#BF1920"/>
<path d="M42.2401 19.516L38.8693 6.94124C38.3278 4.9092 36.4775 3.41565 34.2745 3.41565C33.7031 3.41565 33.1557 3.51773 32.6477 3.70253L25.3909 6.34131H32.8545L34.1299 11.1044C32.8927 10.0396 31.2814 9.39176 29.5171 9.39176C26.0137 9.39176 23.1772 11.7395 23.1772 14.6355C23.1772 17.5317 26.0137 19.8829 29.5171 19.8829C32.0393 19.8829 34.2697 18.6482 35.6455 16.7512L36.3854 19.516H42.2401ZM31.958 17.5628C30.3419 17.5628 29.0318 16.254 29.0318 14.6355C29.0318 13.0194 30.3419 11.7094 31.958 11.7094C33.5741 11.7094 34.8853 13.0194 34.8853 14.6355C34.8853 16.254 33.5741 17.5628 31.958 17.5628Z" fill="#BF1920"/>
<path d="M55.9839 3.41779C55.5416 3.41779 55.1232 3.51556 54.7503 3.69068L50.091 5.86209C49.8603 4.47504 48.6554 3.41779 47.2019 3.41779C46.762 3.41779 46.3424 3.51556 45.9647 3.69068L40.2762 6.34129H44.2757V19.5161H50.1304V7.80699C50.1304 6.99908 50.7842 6.34141 51.5947 6.34141C52.4003 6.34141 53.0589 6.99908 53.0589 7.80699V19.5161H58.9112V6.34129C58.9112 4.72558 57.5999 3.41779 55.9839 3.41779Z" fill="#BF1920"/>
<path d="M92.6992 3.41779C92.2558 3.41779 91.835 3.51556 91.4561 3.69068L86.8015 5.86209C86.572 4.47504 85.3672 3.41779 83.9137 3.41779C83.4738 3.41779 83.0542 3.51556 82.6753 3.69068L76.9892 6.34129H80.9875V19.5161H86.841V7.80699C86.841 6.99908 87.496 6.34141 88.3064 6.34141C89.1145 6.34141 89.7683 6.99908 89.7683 7.80699V19.5161H95.6254V6.34129C95.6254 4.72558 94.3129 3.41779 92.6992 3.41779Z" fill="#BF1920"/>
<path d="M77.9359 11.7092C77.9359 16.2886 74.2244 20.0001 69.6463 20.0001C65.0647 20.0001 61.3508 16.2886 61.3508 11.7092C61.3508 7.13104 65.0647 3.41779 69.6463 3.41779C74.2244 3.41779 77.9359 7.13116 77.9359 11.7092ZM69.9894 5.93417C69.7288 4.95855 68.7259 4.37942 67.7506 4.64167C66.7764 4.90285 66.1943 5.90632 66.456 6.88181L69.2997 17.4839C69.5627 18.4605 70.5632 19.039 71.5385 18.7808C72.5139 18.5167 73.0936 17.5138 72.8319 16.5384L69.9894 5.93417Z" fill="#BF1920"/>
</g>
<defs>
<clipPath id="clip0_12_102">
<rect width="95.6253" height="20" fill="white"/>
</clipPath>
</defs>
</svg>
