<svg width="131" height="20" viewBox="0 0 131 20" fill="none" xmlns="http://www.w3.org/2000/svg">
<g clip-path="url(#clip0_12_113)">
<mask id="mask0_12_113" style="mask-type:luminance" maskUnits="userSpaceOnUse" x="-11" y="-11" width="152" height="42">
<path d="M-10.0007 -10.0027H140.591V30.0004H-10.0007V-10.0027Z" fill="white"/>
</mask>
<g mask="url(#mask0_12_113)">
<path d="M123.978 8.78422V11.5068H125.891V14.208C125.897 14.4494 125.884 14.7097 125.843 14.918C125.767 15.4219 125.288 16.2798 123.93 16.2798C122.58 16.2798 122.11 15.4219 122.028 14.918C121.994 14.7097 121.979 14.4494 121.979 14.208V5.67621C121.979 5.37442 122 5.0441 122.064 4.79409C122.157 4.33937 122.56 3.44264 123.92 3.44264C125.348 3.44264 125.704 4.38803 125.786 4.79409C125.84 5.06304 125.843 5.51417 125.843 5.51417V6.55017H130.544V5.93772C130.544 5.93772 130.565 5.29867 130.508 4.70229C130.155 1.20044 127.27 0.0925241 123.961 0.0925241C120.647 0.0925241 117.82 1.21075 117.408 4.70229C117.371 5.02157 117.314 5.5959 117.314 5.93772V13.7861C117.314 14.128 117.325 14.3926 117.389 15.0173C117.695 18.4227 120.647 19.6299 123.948 19.6299C127.27 19.6299 130.201 18.4227 130.513 15.0173C130.568 14.3926 130.574 14.128 130.582 13.7861V8.78422H123.978ZM91.5617 0.594706H86.8404V14.4048C86.8479 14.6455 86.8404 14.9159 86.799 15.1141C86.7005 15.5777 86.3076 16.4699 85.005 16.4699C83.7192 16.4699 83.3161 15.5777 83.225 15.1141C83.1778 14.9159 83.1718 14.6455 83.1778 14.4048V0.594706H78.458V13.9762C78.452 14.3212 78.4791 15.0259 78.4994 15.2105C78.8252 18.6974 81.5734 19.8296 85.005 19.8296C88.4433 19.8296 91.1899 18.6974 91.5216 15.2105C91.5478 15.0259 91.582 14.3212 91.5617 13.9762V0.594706ZM48.1823 0.594706L45.8272 15.187L43.4736 0.594706H35.8579L35.454 19.2624H40.1196L40.2459 1.98116L43.4561 19.2624H48.1897L51.4027 1.98116L51.5296 19.2624H56.2069L55.7893 0.594706H48.1823ZM19.9856 0.594706L16.5276 19.2624H21.5703L24.1761 1.98116L26.7194 19.2624H31.7271L28.2835 0.594706H19.9856ZM108.062 15.6244L103.665 0.594706H96.7379V19.0678H101.321L101.054 3.55722L105.776 19.0678H112.42V0.594706H107.807L108.062 15.6244ZM65.6726 5.45304C65.5897 5.08438 65.6136 4.6927 65.6565 4.48799C65.7901 3.89041 66.1916 3.23865 67.3484 3.23865C68.4266 3.23865 69.0587 3.91078 69.0587 4.91946V6.06093H73.661V4.75981C73.661 0.737569 70.0549 0.105708 67.444 0.105708C64.1558 0.105708 61.4703 1.18965 60.9799 4.21616C60.8502 5.03979 60.8181 5.77089 61.0245 6.70382C61.8241 10.4775 68.3937 11.5722 69.3473 13.9587C69.5156 14.4108 69.4674 14.9873 69.3816 15.327C69.2387 15.948 68.8209 16.5727 67.5823 16.5727C66.4207 16.5727 65.7215 15.9049 65.7215 14.8984L65.7201 13.1068H60.7663V14.5309C60.7663 18.6574 63.9985 19.9024 67.4797 19.9024C70.8138 19.9024 73.5675 18.7631 74.0093 15.6748C74.22 14.0791 74.0611 13.0397 73.9765 12.6483C73.2046 8.77775 66.2026 7.6135 65.6726 5.45304ZM4.96188 5.40726C4.87151 5.03092 4.89261 4.63373 4.94294 4.42663C5.07047 3.83192 5.47437 3.16865 6.65156 3.16865C7.74341 3.16865 8.3863 3.84726 8.3863 4.86409V6.01946H13.0426V4.70804C13.0426 0.647202 9.38132 -2.32129e-06 6.74193 -2.32129e-06C3.42609 -2.32129e-06 0.716716 1.10072 0.221007 4.14905C0.0853342 4.98586 0.0620752 5.72199 0.258154 6.66523C1.06644 10.4818 7.70098 11.5854 8.66627 14.0004C8.84701 14.4494 8.79236 15.0259 8.70271 15.3787C8.54954 16.0063 8.12838 16.6398 6.87952 16.6398C5.71336 16.6398 5.01582 15.9605 5.01582 14.9401L5.00934 13.1437H0V14.5712C0 18.7449 3.27796 20 6.78627 20C10.1592 20 12.9289 18.8506 13.3808 15.7265C13.6054 14.1162 13.4369 13.0682 13.3611 12.6708C12.5732 8.75282 5.49331 7.5924 4.96188 5.40726Z" fill="#1428A0"/>
</g>
</g>
<defs>
<clipPath id="clip0_12_113">
<rect width="130.582" height="20" fill="white"/>
</clipPath>
</defs>
</svg>
