<svg width="107" height="20" viewBox="0 0 107 20" fill="none" xmlns="http://www.w3.org/2000/svg">
<path d="M87.0441 15.7579C87.2354 15.7668 87.3505 15.935 87.3505 16.1032C87.3505 16.2922 87.1782 16.412 87.087 16.4424L87.3272 16.9588H87.1151L86.8627 16.4316H86.5766V16.9588H86.3553V15.7579H87.0441ZM86.5766 16.2653H87.0052C87.1227 16.2325 87.1335 16.1704 87.1371 16.0912C87.1401 16.0138 87.0656 15.926 86.9904 15.926H86.5766V16.2653Z" fill="white"/>
<path d="M86.8115 17.4143C87.3935 17.4143 87.8639 16.9432 87.8639 16.3619C87.8639 15.7805 87.3935 15.309 86.8115 15.309C86.2301 15.309 85.759 15.7805 85.759 16.3619C85.759 16.9432 86.2301 17.4143 86.8115 17.4143ZM85.9303 16.3535C85.9303 15.8671 86.3238 15.4722 86.8115 15.4722C87.2982 15.4722 87.6922 15.8671 87.6922 16.3535C87.6922 16.8408 87.2982 17.2355 86.8115 17.2355C86.3238 17.2355 85.9303 16.8408 85.9303 16.3535Z" fill="white"/>
<path d="M6.45166 17.6313L52.3619 18.8138L98.2731 17.6313V17.0906L52.3619 15.9064L6.45166 17.0906V17.6313Z" fill="#F6D900"/>
<path d="M22.3423 1.86774H26.7261V10.0187H32.238V12.3872H22.3423V1.86774Z" fill="#343E8B"/>
<path d="M77.8979 12.8092C74.482 12.8092 71.6084 11.7926 71.6084 8.99255V1.86774H75.8509V8.6675C75.8509 9.9835 76.8234 10.5846 77.8979 10.5846C78.9736 10.5846 79.945 9.9835 79.945 8.6675V1.86774H84.1869V8.99255C84.1869 11.7926 81.3152 12.8092 77.8979 12.8092Z" fill="#343E8B"/>
<path d="M93.0759 4.6647H97.5599C97.325 2.2487 93.9238 1.52716 91.2882 1.52716C88.654 1.52716 85.2223 2.38882 85.2223 5.02442C85.2223 6.95025 87.1061 7.56619 88.428 7.8339C89.3659 8.02305 90.9294 8.28956 91.7116 8.46179C92.7998 8.69979 93.3628 8.92104 93.3628 9.56247C93.3628 10.2482 92.7302 10.5989 91.4314 10.5989C90.2 10.5989 89.4643 10.2161 89.2598 9.34784L84.6906 9.34853C84.9588 12.2143 88.6307 12.8409 91.5285 12.8409C94.4444 12.8409 97.9289 12.1469 97.9289 9.30676C97.9289 7.76476 96.9356 6.73864 94.4908 6.24967C93.2113 5.9939 91.4373 5.66059 90.7553 5.54316C89.8519 5.38562 89.5293 5.06008 89.5293 4.6159C89.5293 4.15802 89.9681 3.67727 91.2351 3.67727C92.306 3.67727 92.8851 3.98985 93.0759 4.6647Z" fill="#343E8B"/>
<path d="M66.8488 8.51436C70.0055 8.51436 70.8087 6.50677 70.8087 5.22402C70.8087 4.04339 70.1295 1.86774 66.853 1.86774H58.3669L58.3675 12.3872H62.533V8.51438L66.8488 8.51436ZM62.5324 6.21756V4.16579H65.3134C66.0064 4.16579 66.599 4.48945 66.599 5.15797C66.599 5.747 66.2586 6.21756 65.3082 6.21756H62.5324Z" fill="#343E8B"/>
<path d="M37.5114 2.12397L37.6308 1.86774H42.0289L37.4524 8.84535V12.3872H33.2916V8.84535L28.7302 1.86774H33.1128L33.235 2.12397L35.2182 5.60688C35.3488 5.83048 35.3882 5.83048 35.5325 5.60688L37.5114 2.12397Z" fill="#343E8B"/>
<path d="M50.8131 12.3872L50.8906 12.1778L53.1255 6.98066C53.1832 6.84409 53.318 6.88061 53.3198 7.00049V12.3872H56.9082V1.86774H52.5714L52.4916 2.09425L49.8185 8.12854C49.72 8.35751 49.6282 8.35636 49.5298 8.12854L46.8579 2.09425L46.778 1.86774H42.4407V12.3872H46.0309V7.00049C46.0316 6.88061 46.1663 6.84409 46.2248 6.98066L48.4572 12.1778L48.5365 12.3872H50.8131Z" fill="#343E8B"/>
<path d="M21.3519 7.12811C21.3519 10.6622 18.2871 12.7902 14.0118 12.7902C9.73655 12.7902 6.67163 10.6622 6.67163 7.12811C6.67163 3.59216 9.73655 1.46515 14.0118 1.46515C18.2871 1.46515 21.3519 3.59218 21.3519 7.12811ZM16.9389 7.12811C16.9389 4.99994 15.8376 3.68628 14.0118 3.68628C12.1853 3.68628 11.0853 4.99993 11.0853 7.12811C11.0853 9.25559 12.1853 10.5686 14.0118 10.5686C15.8376 10.5686 16.9389 9.25559 16.9389 7.12811Z" fill="#343E8B"/>
<path d="M99.2528 1.71259C99.477 1.7227 99.6123 1.92064 99.6123 2.11807C99.6123 2.33933 99.4102 2.48013 99.3028 2.51647L99.585 3.12224H99.3356L99.0394 2.50327H98.7037V3.12224H98.4442V1.71259H99.2528ZM98.7037 2.30836H99.2068C99.3446 2.2695 99.3578 2.19681 99.3614 2.10384C99.3649 2.01259 99.2779 1.90933 99.1896 1.90933H98.7037V2.30836Z" fill="#343E8B"/>
<path d="M98.979 3.65655C99.6624 3.65655 100.215 3.10381 100.215 2.42164C100.215 1.73895 99.6624 1.1861 98.979 1.1861C98.2968 1.1861 97.7441 1.73895 97.7441 2.42164C97.7441 3.10381 98.2968 3.65655 98.979 3.65655ZM97.9451 2.41204C97.9451 1.84022 98.4072 1.3769 98.979 1.3769C99.5508 1.3769 100.013 1.84022 100.013 2.41204C100.013 2.9833 99.5508 3.44661 98.979 3.44661C98.4072 3.44661 97.9451 2.9833 97.9451 2.41204Z" fill="#343E8B"/>
</svg>
