<?xml version="1.0" standalone="no"?>
<!DOCTYPE svg PUBLIC "-//W3C//DTD SVG 20010904//EN"
 "http://www.w3.org/TR/2001/REC-SVG-20010904/DTD/svg10.dtd">
<svg version="1.0" xmlns="http://www.w3.org/2000/svg"
 width="960.000000pt" height="960.000000pt" viewBox="0 0 960.000000 960.000000"
 preserveAspectRatio="xMidYMid meet">
<metadata>
Created by potrace 1.11, written by Peter Selinger 2001-2013
</metadata>
<g transform="translate(0.000000,960.000000) scale(0.100000,-0.100000)"
fill="#000000" stroke="none">
<path d="M0 9585 c0 -9 7 -18 15 -22 9 -3 22 -21 30 -39 8 -19 19 -34 24 -34
18 0 12 -27 -6 -34 -15 -6 -15 -9 -3 -16 11 -7 7 -16 -23 -44 l-37 -35 0
-4680 0 -4681 1015 0 1015 0 0 30 c0 20 -5 30 -15 30 -21 0 -19 20 3 21 13 0
13 2 -4 9 -33 13 -40 31 -19 47 22 16 67 17 81 3 12 -12 47 -2 38 11 -3 5 1 9
8 9 7 0 20 15 29 33 8 17 25 36 37 42 12 5 22 18 22 28 0 9 11 23 25 29 14 6
25 16 25 22 0 6 14 11 32 11 17 0 32 6 34 13 1 7 0 8 -3 2 -2 -5 -11 -10 -18
-10 -10 0 -11 8 -6 27 9 33 -2 80 -34 148 -13 28 -32 68 -41 90 -77 185 -90
223 -105 305 -56 287 -73 555 -44 670 37 147 66 242 95 315 17 44 38 99 45
122 8 24 27 64 42 90 43 72 49 84 74 133 28 56 81 140 100 160 38 39 98 144
109 192 7 29 27 91 46 138 35 91 61 236 51 293 -6 38 -61 162 -76 172 -19 11
-43 71 -48 120 -4 41 0 58 21 95 36 64 111 134 182 169 108 53 162 154 210
393 23 111 47 143 107 142 28 -1 50 5 67 18 l25 20 5 -33 c4 -26 14 -38 51
-60 25 -15 65 -30 88 -34 24 -4 38 -11 35 -17 -4 -6 1 -8 14 -4 13 4 22 1 25
-9 4 -8 13 -12 22 -9 8 4 15 1 15 -6 0 -7 13 -26 30 -42 31 -29 39 -63 17 -71
-7 -2 -8 -8 -3 -13 5 -5 11 -4 13 4 3 6 11 12 18 12 9 0 12 -12 9 -42 -4 -38
-3 -40 7 -20 7 12 16 22 21 22 11 0 10 -37 -2 -45 -5 -3 -7 -12 -3 -20 4 -12
9 -10 22 8 10 12 20 30 24 39 10 27 30 22 23 -4 -3 -13 -8 -34 -12 -48 -5 -24
-5 -24 10 -6 24 30 28 14 11 -50 -24 -94 -36 -125 -45 -119 -5 3 -23 -13 -41
-35 -20 -25 -38 -39 -47 -35 -11 4 -13 -1 -8 -20 5 -19 2 -25 -10 -25 -8 0
-21 -6 -29 -13 -16 -16 -86 -8 -154 18 -56 21 -177 33 -167 17 4 -6 26 -17 49
-23 23 -7 47 -16 52 -19 6 -4 28 -13 50 -20 22 -7 45 -16 50 -19 6 -4 37 -15
70 -25 33 -10 68 -22 77 -27 10 -5 31 -9 46 -9 16 0 51 -11 78 -25 40 -20 64
-25 129 -25 84 0 171 -18 209 -44 27 -17 119 -112 125 -128 2 -6 -3 -14 -10
-20 -12 -7 -11 -9 1 -7 55 6 52 -13 -6 -40 -26 -13 -73 -24 -110 -26 -35 -2
-84 -14 -109 -25 -25 -11 -55 -25 -67 -30 -13 -6 -43 -22 -68 -36 -77 -44
-158 -84 -173 -84 -13 0 -43 -21 -79 -56 -10 -10 -18 -26 -18 -36 0 -17 6 -18
63 -14 170 15 215 22 232 36 13 11 19 12 22 3 5 -14 74 -5 86 11 6 7 7 5 4 -6
-4 -12 3 -19 24 -27 19 -6 29 -17 29 -30 0 -11 5 -23 10 -26 6 -3 10 -21 10
-39 0 -17 5 -37 12 -44 9 -9 9 -12 0 -12 -7 0 -12 -11 -12 -25 0 -13 -11 -41
-25 -61 -14 -20 -22 -40 -20 -45 3 -4 -1 -11 -9 -16 -8 -4 -17 -19 -21 -33 -5
-23 -1 -28 38 -48 27 -13 63 -22 91 -22 44 0 48 2 61 33 30 71 67 73 86 5 13
-48 7 -154 -10 -171 -6 -6 -11 -21 -11 -34 0 -58 -68 -194 -129 -259 -27 -30
-141 -208 -141 -222 0 -21 38 -34 61 -21 16 8 27 8 44 -1 33 -17 66 8 88 67
10 26 26 64 35 83 9 19 19 44 23 55 5 17 10 11 30 -30 18 -40 23 -68 23 -137
1 -53 5 -87 11 -85 14 5 48 -29 50 -50 4 -36 28 -113 36 -119 5 -3 9 -15 9
-27 1 -20 2 -20 11 -4 12 21 38 22 45 2 5 -11 15 -14 38 -9 23 4 36 1 45 -10
17 -20 51 -21 51 -1 0 8 -7 15 -15 15 -9 0 -12 6 -9 15 4 8 1 15 -6 15 -16 0
-104 79 -157 142 -75 86 -49 144 39 89 24 -14 60 -35 81 -46 20 -11 37 -23 37
-27 0 -4 18 -13 40 -19 22 -7 40 -18 40 -25 0 -7 8 -15 19 -19 10 -3 30 -16
45 -29 14 -14 49 -36 78 -51 29 -15 61 -32 71 -37 23 -11 37 -1 17 12 -13 8
-13 12 3 27 9 10 17 12 17 6 0 -7 12 -11 27 -10 22 2 29 -3 31 -21 2 -12 8
-22 13 -22 6 0 7 -4 4 -10 -3 -5 -2 -17 3 -27 7 -11 6 -21 -4 -31 -17 -16 -19
-52 -3 -52 8 0 9 -13 5 -39 -4 -25 -2 -42 5 -47 7 -4 9 -22 6 -48 -8 -53 6
-79 23 -45 7 13 30 40 51 60 22 20 39 41 39 47 0 5 6 15 14 21 13 11 37 91 55
186 5 28 15 70 21 95 8 31 8 46 1 48 -16 5 -13 28 5 64 14 27 15 37 4 66 -8
24 -9 37 -2 44 8 8 4 17 -11 30 l-22 19 22 -6 c26 -7 34 4 26 35 -6 22 -7 23
-14 4 -7 -18 -8 -17 -8 4 -1 12 4 22 10 22 6 0 9 7 5 15 -5 13 -2 14 22 1 15
-8 49 -17 75 -21 46 -7 47 -7 45 19 -2 17 -11 29 -28 36 -14 6 -38 29 -53 50
-16 22 -35 40 -43 40 -8 0 -14 4 -14 10 0 5 -7 7 -15 3 -9 -3 -23 1 -33 10
-23 20 -102 57 -122 57 -9 0 -32 7 -50 16 -17 9 -44 16 -59 16 -14 0 -31 4
-37 9 -16 13 -64 -7 -64 -26 0 -18 -17 -20 -23 -2 -2 6 -8 8 -13 4 -5 -4 -3
-11 4 -16 6 -4 18 -28 26 -54 12 -40 12 -47 0 -47 -8 0 -14 -7 -14 -15 0 -8
-6 -15 -13 -15 -7 0 -26 -13 -43 -28 -25 -23 -38 -27 -68 -24 -22 3 -36 0 -36
-7 0 -6 9 -11 20 -11 14 0 22 -11 30 -40 6 -22 15 -40 20 -40 6 0 10 -6 10
-14 0 -8 10 -16 23 -19 20 -3 20 -4 4 -11 -12 -6 -24 -3 -37 9 -10 9 -23 14
-29 11 -6 -4 -17 6 -25 21 -7 16 -23 37 -35 47 -12 11 -21 27 -21 38 0 11 -7
18 -19 18 -13 0 -21 9 -26 30 -4 16 -13 30 -21 30 -8 0 -23 15 -34 32 -11 18
-23 32 -27 30 -5 -2 -10 4 -11 13 -2 9 -12 25 -23 36 -10 10 -19 30 -19 43 0
14 -4 28 -10 31 -17 10 -11 25 10 25 11 0 20 5 20 10 0 7 6 7 17 1 32 -17 101
-31 117 -25 9 3 23 31 32 63 8 31 19 67 25 81 5 14 11 45 14 70 4 40 14 79 40
158 4 12 14 22 21 22 8 0 14 9 14 19 0 10 7 21 15 25 8 3 15 14 15 24 0 10 11
29 25 42 23 22 25 22 25 4 0 -15 2 -16 9 -5 10 16 31 6 31 -15 0 -8 3 -14 6
-14 6 0 55 57 69 81 53 93 86 143 162 248 48 67 93 130 98 139 6 9 15 21 22
25 8 5 9 15 4 31 -6 13 -5 29 0 37 5 8 9 24 9 36 0 17 11 28 44 43 25 11 54
20 65 20 22 0 60 37 352 337 113 116 227 240 253 275 26 34 52 70 59 78 101
126 258 436 323 635 7 22 20 59 28 81 38 106 130 444 155 574 5 30 13 96 17
145 3 50 10 95 15 101 5 6 7 18 3 27 -7 18 14 33 27 20 5 -5 10 -31 11 -57 0
-25 4 -48 8 -51 6 -4 6 -230 0 -230 -1 0 -3 -38 -5 -85 -6 -159 -34 -370 -56
-428 -6 -15 -15 -52 -20 -82 -6 -30 -18 -77 -29 -105 -10 -27 -24 -71 -31 -97
-7 -27 -16 -48 -20 -48 -4 0 -9 -8 -13 -17 -6 -21 -25 -51 -44 -71 -7 -8 -10
-22 -7 -32 4 -11 -1 -23 -13 -32 -10 -7 -21 -22 -25 -33 -14 -47 -33 -93 -50
-118 -9 -14 -17 -31 -17 -36 0 -5 -18 -40 -40 -79 -22 -38 -40 -74 -40 -81 0
-14 -20 -49 -43 -75 -15 -18 -19 -19 -27 -6 -9 13 -10 13 -10 0 0 -8 -12 -26
-26 -39 -24 -23 -24 -25 -7 -34 10 -6 19 -11 21 -12 1 -1 -3 -14 -9 -29 -8
-16 -18 -25 -26 -22 -8 4 -11 1 -8 -5 8 -12 -22 -118 -41 -144 -11 -15 -16
-16 -29 -5 -10 8 -15 9 -15 1 0 -6 4 -11 10 -11 5 0 7 -7 4 -15 -4 -8 -16 -15
-28 -15 -12 0 -16 -3 -10 -8 14 -9 26 -42 15 -42 -5 0 -11 -11 -13 -25 -3 -14
-1 -25 3 -25 14 0 10 -30 -3 -30 -7 0 -21 -12 -31 -25 -14 -20 -15 -28 -5 -44
10 -16 9 -26 -7 -55 -21 -38 -31 -44 -38 -23 -2 6 -3 3 -1 -9 2 -11 -1 -37 -7
-58 -7 -24 -7 -42 -1 -48 6 -6 12 0 16 16 3 14 11 26 16 26 13 0 13 -3 -5 -36
-9 -18 -11 -32 -5 -38 13 -13 38 10 54 48 10 24 13 27 19 13 3 -9 0 -23 -8
-31 -21 -21 -19 -49 8 -90 15 -24 30 -35 47 -36 21 -1 16 -5 -25 -26 -27 -13
-61 -33 -74 -43 -23 -17 -23 -21 -11 -51 18 -44 45 -52 105 -28 28 11 60 26
73 34 12 8 22 10 22 4 0 -5 -9 -15 -21 -22 -11 -7 -30 -31 -41 -52 -17 -34
-19 -44 -8 -76 7 -21 26 -45 46 -59 29 -20 41 -23 85 -17 84 11 202 81 240
143 34 55 40 90 22 129 -20 40 -42 48 -118 42 -30 -3 -55 -1 -55 3 0 4 36 27
80 50 51 26 80 47 80 58 0 18 -36 81 -46 81 -4 0 -43 -20 -88 -44 -108 -59
-199 -106 -205 -106 -12 0 19 22 74 51 68 36 77 46 64 70 -5 10 -10 29 -11 43
-2 21 -8 26 -30 26 -15 0 -30 4 -33 10 -4 6 -15 2 -27 -10 -30 -28 -42 -14
-16 20 16 23 25 27 35 19 19 -16 33 -1 68 75 31 67 45 82 45 46 0 -11 5 -20
10 -20 6 0 10 9 10 20 0 11 3 20 8 20 8 0 32 49 32 67 0 7 5 13 11 13 18 0 38
32 39 60 1 14 6 34 11 45 7 16 8 13 4 -13 -4 -28 -2 -33 13 -30 9 2 19 14 21
28 1 14 12 37 22 51 10 15 19 32 19 38 0 6 9 11 19 11 24 0 61 45 61 74 0 11
7 30 15 40 12 16 17 17 30 6 12 -10 15 -10 15 4 0 9 -7 19 -15 22 -19 8 -19
33 0 40 8 4 15 15 15 25 0 11 4 27 9 37 25 46 30 134 29 607 0 432 2 516 18
620 10 66 19 186 20 267 2 134 4 152 28 204 14 31 26 70 26 88 0 17 7 58 15
91 7 34 15 102 17 153 3 87 9 108 22 80 3 -7 4 -4 1 8 -3 11 1 36 9 55 13 28
15 30 16 12 0 -32 15 -29 43 10 42 56 43 75 5 112 -42 42 -58 62 -58 75 0 5
-4 10 -10 10 -5 0 -10 11 -10 25 0 14 5 25 10 25 6 0 10 -9 10 -19 0 -22 9
-30 41 -36 12 -2 29 -13 39 -25 9 -11 20 -20 23 -20 3 0 16 21 29 48 12 26 39
64 59 84 20 20 34 40 30 44 -3 4 0 4 8 -1 8 -4 16 -2 21 5 10 17 45 4 47 -17
1 -10 15 -92 31 -183 18 -102 26 -173 21 -186 -9 -24 -45 -38 -54 -20 -3 6 -3
-15 -1 -47 3 -32 11 -65 18 -74 14 -17 21 -81 10 -98 -10 -14 -8 -36 6 -62 8
-15 10 -40 6 -72 -4 -31 -2 -56 6 -72 7 -13 14 -62 16 -109 2 -54 6 -84 13
-82 6 1 11 -9 11 -23 0 -13 6 -28 14 -32 36 -21 37 -93 1 -93 -8 0 -15 -4 -15
-10 0 -5 4 -10 10 -10 5 0 7 -7 4 -15 -4 -10 3 -18 19 -24 14 -6 28 -19 32
-30 3 -12 15 -21 25 -21 10 0 20 -6 23 -12 2 -7 32 -26 66 -43 47 -23 61 -35
61 -52 0 -13 -6 -23 -12 -23 -7 -1 -3 -9 10 -19 24 -21 29 -60 10 -79 -9 -9 0
-12 40 -12 43 0 52 3 53 18 0 9 5 2 10 -15 10 -36 21 -41 41 -19 10 11 16 9
31 -10 10 -13 27 -24 38 -24 14 0 19 -7 19 -27 0 -16 4 -23 8 -17 11 17 68 33
83 23 11 -6 8 -9 -8 -9 -23 0 -32 -23 -13 -35 6 -3 10 -1 10 4 0 6 17 11 38
11 32 0 41 -5 51 -27 25 -53 27 -57 38 -60 6 -2 14 8 17 22 9 35 24 23 18 -15
-4 -25 -1 -30 17 -30 11 0 21 -4 21 -10 0 -5 9 -10 20 -10 11 0 20 7 20 15 0
20 8 19 48 -5 21 -13 32 -16 32 -7 1 6 12 -1 26 -18 24 -29 25 -29 39 -11 14
19 15 18 35 -7 12 -15 29 -26 38 -25 57 4 102 -3 102 -17 0 -19 16 -19 24 0 9
25 26 17 26 -13 0 -32 16 -53 36 -45 9 3 14 -2 14 -16 0 -23 34 -30 44 -8 5
10 7 10 12 0 3 -7 12 -13 20 -13 8 0 14 -6 14 -14 0 -11 9 -13 38 -9 20 3 41
10 46 14 20 18 43 8 59 -26 9 -19 13 -43 10 -52 -12 -32 22 8 45 53 l20 39 -5
-42 c-5 -35 -3 -43 11 -43 9 0 16 6 16 14 0 8 9 18 21 21 16 5 29 -2 55 -29
19 -20 38 -36 44 -36 5 0 10 -6 10 -14 0 -8 9 -21 19 -28 11 -8 23 -26 26 -41
7 -28 35 -59 35 -38 0 6 11 11 25 11 19 0 25 -5 23 -17 -4 -24 46 -30 68 -8
27 26 10 48 -32 40 -34 -6 -35 -5 -29 17 4 13 13 26 19 30 6 4 7 10 3 14 -3 4
-13 1 -21 -5 -12 -10 -17 -8 -25 8 -6 11 -11 29 -11 39 0 13 -10 24 -31 31
-35 12 -35 30 0 43 20 7 23 6 18 -12 -4 -18 0 -20 34 -20 29 0 45 -6 61 -25
12 -14 29 -25 39 -25 10 0 19 -3 21 -7 4 -11 85 -63 96 -63 5 0 17 -9 27 -20
10 -11 24 -20 31 -20 8 0 28 -9 46 -19 17 -11 35 -18 38 -16 4 3 15 -4 25 -15
10 -11 31 -20 47 -20 21 0 31 -6 35 -19 3 -11 12 -22 20 -25 8 -3 11 -1 8 4
-8 13 4 13 43 -1 21 -7 36 -7 50 0 17 9 22 6 32 -19 16 -38 24 -38 40 0 10 24
19 30 41 30 27 0 29 -3 29 -40 0 -24 5 -40 12 -40 9 0 9 -3 0 -12 -17 -17 -15
-38 3 -38 8 0 15 -4 15 -10 0 -5 19 -11 43 -11 23 -1 34 -3 25 -6 -22 -6 -23
-17 -3 -33 8 -7 15 -19 15 -26 0 -10 13 -14 40 -14 l40 0 0 54 c0 34 -5 56
-12 59 -10 4 -10 6 0 6 17 1 15 31 -3 31 -8 0 -24 -5 -35 -12 -10 -7 -23 -8
-27 -4 -4 5 -2 11 5 13 21 8 13 23 -13 23 -40 0 -75 44 -75 95 0 25 -5 45 -12
47 -9 3 -7 15 7 44 10 21 18 49 17 62 -1 13 2 20 8 17 15 -9 12 5 -5 21 -17
18 -20 34 -5 34 6 0 10 7 10 15 0 8 14 30 31 49 17 20 32 46 34 58 2 13 18 61
36 108 l34 85 2 2433 3 2432 -898 0 c-705 0 -901 -3 -911 -12 -11 -10 -14 -10
-18 0 -6 15 -1243 18 -1243 2 0 -5 13 -19 29 -31 35 -26 55 -69 46 -98 -4 -13
-2 -21 6 -21 7 0 9 -10 6 -30 -4 -16 -2 -32 3 -35 5 -3 3 -24 -4 -50 -9 -27
-10 -45 -4 -47 6 -2 5 -15 -3 -33 -50 -122 -79 -165 -111 -165 -10 0 -18 -4
-18 -8 0 -10 -60 -32 -88 -32 -11 0 -24 5 -27 10 -9 14 -42 12 -48 -2 -2 -7
-8 -10 -12 -6 -4 4 -2 15 6 24 12 15 10 16 -29 13 -23 -3 -42 -2 -42 2 0 3
-11 4 -25 1 -13 -2 -33 -1 -42 3 -10 4 -32 7 -49 6 -42 -3 -77 39 -72 87 3 25
1 31 -10 27 -10 -3 -12 0 -8 10 3 9 11 45 18 80 8 47 16 65 27 66 11 0 12 2 4
6 -17 6 -16 42 2 77 8 15 15 39 15 52 0 13 4 24 9 24 9 0 51 61 51 74 0 3
-274 6 -610 6 -400 0 -610 -3 -610 -10 0 -5 -7 -10 -15 -10 -8 0 -15 5 -15 10
0 6 -18 10 -40 10 -37 0 -40 -2 -40 -29 0 -32 -25 -45 -54 -29 -9 5 -34 10
-55 10 -27 0 -47 8 -65 25 -25 23 -29 24 -196 23 -139 -1 -170 -4 -170 -16 0
-19 -29 -18 -36 1 -7 17 -40 20 -49 5 -5 -8 -11 -8 -19 -1 -19 16 -613 15
-619 -1 -4 -10 -6 -10 -6 0 -1 8 -19 12 -55 12 -49 0 -54 -2 -49 -20 6 -23 14
-25 30 -9 8 8 17 4 32 -12 24 -26 28 -44 8 -36 -8 3 -20 1 -28 -4 -11 -7 -11
-9 4 -9 9 0 17 -4 17 -10 0 -9 -59 -15 -104 -10 -11 1 -15 -3 -12 -9 5 -7 -3
-11 -18 -11 -18 0 -26 -5 -26 -17 0 -14 -3 -13 -16 5 -8 12 -26 22 -38 22 -45
0 -86 13 -86 26 0 8 -6 14 -14 14 -9 0 -12 7 -9 20 3 13 0 20 -9 20 -7 0 -21
9 -31 20 -15 18 -29 20 -162 20 -132 0 -147 -2 -165 -20 -17 -17 -18 -23 -8
-40 17 -27 28 -25 28 5 0 14 3 25 8 26 4 0 17 2 29 5 18 3 22 -1 25 -28 4 -40
21 -46 36 -13 12 25 42 26 42 0 0 -7 6 -15 13 -18 26 -10 -13 -31 -53 -30 -33
2 -40 -1 -38 -15 2 -13 -3 -16 -20 -14 -13 2 -29 -2 -37 -8 -8 -6 -23 -9 -35
-5 -11 3 -20 2 -20 -3 0 -13 -93 -21 -102 -8 -4 6 -12 5 -21 -3 -11 -9 -17 -9
-22 -1 -4 7 -22 10 -44 7 -20 -3 -28 -3 -18 -1 25 8 21 41 -5 50 -13 5 -27 7
-31 6 -5 -2 -11 7 -14 18 -4 14 -11 19 -23 15 -10 -3 -28 3 -41 14 -13 11 -18
20 -11 21 6 0 12 4 12 9 0 17 -77 24 -295 25 l-220 1 -16 -35 c-10 -19 -15
-39 -12 -43 3 -4 0 -13 -5 -20 -6 -7 -10 -28 -10 -47 1 -31 -7 -53 -45 -128
-7 -12 -17 -20 -23 -18 -13 5 -40 -77 -30 -92 3 -5 -1 -15 -9 -22 -8 -7 -15
-21 -15 -31 0 -10 -9 -24 -20 -31 -11 -7 -20 -23 -20 -35 0 -13 -3 -23 -8 -23
-14 0 -34 -61 -28 -85 4 -14 2 -25 -4 -25 -5 0 -10 -9 -10 -20 0 -11 -7 -23
-15 -26 -8 -3 -14 -16 -14 -27 1 -40 -8 -118 -15 -124 -3 -4 1 -15 11 -25 15
-17 15 -18 -7 -18 -21 0 -22 -2 -8 -17 22 -26 33 -47 21 -40 -13 8 -23 -14
-23 -47 0 -13 -11 -32 -25 -42 -14 -10 -25 -24 -25 -30 0 -17 -26 -24 -61 -17
-17 3 -40 0 -54 -7 -20 -11 -27 -11 -40 0 -13 11 -15 9 -15 -14 0 -14 5 -26
11 -26 5 0 7 -5 3 -11 -4 -8 -9 -7 -16 2 -7 11 -11 11 -15 2 -8 -20 -77 -35
-107 -23 -14 5 -26 14 -26 20 0 5 -8 10 -18 10 -22 0 -72 22 -72 33 0 4 -7 7
-16 7 -11 0 -14 6 -9 20 5 17 2 20 -24 20 -18 0 -31 5 -31 13 0 7 -9 18 -20
25 -11 6 -26 27 -34 45 -17 42 -56 82 -104 106 -20 10 -46 28 -56 40 -11 12
-39 31 -63 43 -24 12 -43 27 -43 35 0 7 -7 13 -15 13 -8 0 -15 4 -15 9 0 5
-15 18 -34 29 -21 12 -36 30 -38 44 -2 15 -10 23 -23 23 -17 0 -20 6 -17 33 1
20 -5 44 -16 60 -10 15 -22 35 -25 45 -4 9 -12 17 -19 17 -13 0 -38 44 -38 67
0 7 -9 13 -19 13 -13 0 -24 11 -32 34 -7 19 -16 33 -21 30 -4 -3 -8 6 -8 20 0
14 -9 35 -21 47 -12 12 -19 29 -16 40 5 19 -28 53 -43 44 -4 -2 -12 7 -18 20
-7 14 -16 25 -21 25 -5 0 -30 20 -55 45 -26 25 -51 45 -56 45 -6 0 -10 7 -10
15 0 13 -20 15 -120 15 -101 0 -120 -2 -120 -15z m4885 -5 c3 -5 -1 -10 -10
-10 -9 0 -13 5 -10 10 3 6 8 10 10 10 2 0 7 -4 10 -10z m-1265 -46 c0 -8 -4
-14 -10 -14 -5 0 -10 9 -10 21 0 11 5 17 10 14 6 -3 10 -13 10 -21z m1340 17
c0 -6 -4 -13 -10 -16 -5 -3 -10 1 -10 9 0 9 5 16 10 16 6 0 10 -4 10 -9z
m-1907 -36 c-7 -21 -13 -19 -13 6 0 11 4 18 10 14 5 -3 7 -12 3 -20z m901 -26
c-3 -5 -10 -7 -15 -3 -5 3 -7 10 -3 15 3 5 10 7 15 3 5 -3 7 -10 3 -15z
m-1387 -31 c-3 -8 -6 -5 -6 6 -1 11 2 17 5 13 3 -3 4 -12 1 -19z m-22 -8 c3
-5 1 -10 -4 -10 -6 0 -11 5 -11 10 0 6 2 10 4 10 3 0 8 -4 11 -10z m5179 -265
c18 -9 72 -48 120 -87 l88 -72 141 14 c189 19 239 17 392 -13 161 -32 246 -56
333 -98 111 -52 100 -52 203 -3 81 39 101 44 142 41 77 -7 110 -47 143 -172
14 -54 30 -108 36 -118 5 -11 8 -76 6 -155 -3 -132 -2 -139 24 -192 15 -30 31
-71 34 -90 9 -46 35 -74 85 -90 22 -8 51 -27 65 -43 36 -43 32 -89 -18 -189
-118 -230 -121 -244 -107 -511 16 -311 7 -355 -127 -614 -106 -206 -144 -299
-144 -354 0 -47 15 -57 46 -33 25 20 188 334 204 393 5 20 24 59 41 86 l32 50
10 -35 c17 -66 3 -140 -47 -237 -25 -49 -46 -94 -46 -100 0 -5 -22 -47 -50
-93 -27 -46 -50 -95 -50 -109 0 -14 -4 -42 -10 -61 -6 -22 -6 -38 0 -44 6 -6
10 -20 10 -32 0 -12 7 -27 15 -34 8 -7 15 -18 15 -25 0 -7 7 -18 15 -25 8 -7
20 -31 27 -54 7 -22 17 -45 23 -51 16 -15 32 -72 40 -140 4 -33 13 -80 21
-105 16 -48 40 -145 54 -225 5 -27 17 -79 27 -115 24 -92 23 -311 -2 -400 -37
-130 -100 -232 -192 -310 -29 -25 -53 -50 -53 -56 0 -5 -20 -25 -45 -44 -25
-19 -45 -40 -45 -47 0 -8 -10 -18 -22 -23 -13 -5 -18 -9 -13 -9 22 -2 -52 -41
-77 -41 -45 0 -132 23 -160 42 -16 11 -28 15 -28 9 0 -6 -9 -11 -21 -11 -11 0
-17 5 -14 10 6 10 -7 14 -32 11 -7 -1 -13 6 -13 16 0 11 -8 19 -22 20 -47 4
-118 28 -118 40 0 7 -7 13 -15 13 -9 0 -18 7 -21 15 -4 9 -11 14 -18 13 -6 -2
-26 12 -44 31 -26 28 -30 37 -20 48 7 8 13 22 14 32 2 12 -1 12 -14 -5 -10
-11 -30 -23 -45 -26 -22 -4 -25 -3 -16 9 10 11 8 12 -6 7 -13 -5 -16 -4 -11 5
14 22 25 72 15 65 -6 -3 -7 4 -3 20 3 15 1 32 -5 40 -6 7 -8 21 -5 30 6 15 2
17 -31 10 l-37 -7 4 42 c2 30 0 41 -10 41 -9 0 -11 7 -7 19 3 11 -1 26 -10 35
-19 18 -35 21 -35 6 0 -5 -4 -10 -10 -10 -5 0 -10 11 -10 25 0 18 -5 25 -20
25 -22 0 -26 16 -10 40 6 10 10 11 10 3 0 -20 17 -15 23 6 3 15 0 17 -16 13
-18 -5 -19 -2 -12 34 4 21 12 42 18 46 8 5 5 12 -9 22 -12 9 -24 28 -27 44 -3
16 -13 37 -22 45 -8 9 -15 23 -15 31 0 9 -6 16 -14 16 -14 0 -31 63 -21 79 8
15 -39 -1 -50 -16 -6 -8 -22 -14 -35 -14 -14 1 -35 1 -48 1 -27 0 -71 29 -72
47 0 15 -47 63 -61 63 -16 0 -99 88 -99 105 0 11 -11 15 -40 15 -29 0 -40 -4
-40 -15 0 -8 -9 -15 -20 -15 -11 0 -20 5 -20 10 0 6 -10 10 -21 10 -16 0 -20
-5 -16 -19 3 -14 0 -17 -13 -14 -21 6 -35 -26 -25 -57 4 -11 2 -20 -4 -20 -6
0 -11 -4 -11 -10 0 -5 11 -10 25 -10 27 0 35 -26 13 -48 -9 -9 -7 -12 10 -12
12 0 22 -3 22 -7 0 -11 -20 -40 -20 -30 0 4 -9 3 -20 -3 -12 -6 -30 -8 -41 -5
-19 6 -19 7 -3 20 16 11 16 15 5 29 -7 9 -26 16 -42 16 -15 0 -31 6 -35 12 -6
9 -10 5 -15 -12 l-7 -25 -1 25 c-1 24 -4 25 -42 22 -40 -4 -42 -3 -37 20 4 21
1 24 -24 20 -21 -3 -28 0 -28 12 0 15 -10 20 -36 17 -16 -2 -81 27 -89 39 -3
5 -19 10 -35 10 -21 0 -30 6 -36 23 -3 12 -13 30 -22 40 -22 25 -40 57 -92
167 -4 8 -15 42 -25 75 -10 33 -23 67 -30 75 -14 18 -35 89 -35 118 0 19 3 20
25 10 14 -6 25 -15 25 -20 0 -4 5 -8 10 -8 6 0 21 -11 33 -26 12 -14 31 -26
42 -28 12 -2 21 -12 23 -27 5 -31 10 -35 55 -43 36 -7 38 -5 52 28 9 20 20 35
26 33 6 -1 14 4 16 11 3 6 0 12 -6 12 -6 0 -11 7 -11 15 0 8 4 15 8 15 4 0 14
17 22 38 8 20 16 40 18 45 2 4 -11 7 -29 7 l-32 0 22 24 c18 19 21 30 16 62
-5 31 -2 43 14 61 12 12 21 26 21 31 0 4 10 19 22 32 14 15 18 25 11 27 -12 4
12 71 31 84 5 4 5 12 1 18 -11 18 3 61 20 61 17 0 19 18 5 54 -6 16 -6 27 0
31 6 4 10 22 10 41 0 27 4 34 19 34 16 0 20 -8 23 -37 2 -27 8 -39 21 -41 12
-2 17 3 17 17 0 18 7 21 43 23 l42 1 -42 4 c-34 3 -43 8 -43 23 0 12 -5 17
-14 14 -10 -4 -12 2 -8 23 3 15 10 31 16 35 6 4 7 11 2 15 -5 4 -11 2 -13 -4
-3 -7 -11 -13 -18 -13 -10 0 -12 10 -8 38 3 20 10 42 15 49 5 7 4 13 -4 15 -9
3 -6 15 10 42 12 21 22 54 22 76 0 21 5 40 11 42 8 3 8 10 -2 26 -10 16 -23
22 -51 22 -20 0 -39 -4 -43 -9 -3 -5 -20 -13 -38 -16 -17 -4 -49 -23 -70 -41
-20 -19 -42 -34 -48 -34 -6 0 -27 -13 -46 -30 -18 -16 -40 -30 -48 -30 -8 0
-15 -5 -15 -10 0 -6 -8 -14 -17 -17 -10 -4 -39 -28 -65 -55 -25 -26 -51 -48
-57 -48 -6 0 -11 -4 -11 -10 0 -5 -6 -10 -13 -10 -7 0 -35 -20 -61 -45 -27
-25 -53 -45 -57 -45 -5 0 -9 -7 -9 -15 0 -8 -9 -15 -20 -15 -11 0 -26 -12 -34
-29 -9 -16 -29 -40 -45 -54 -16 -13 -28 -27 -25 -29 2 -3 -5 -13 -16 -23 -11
-10 -20 -24 -20 -32 0 -7 -7 -13 -15 -13 -8 0 -15 -5 -15 -10 0 -6 -17 -18
-37 -27 -103 -45 -122 -55 -138 -73 -10 -11 -23 -20 -29 -20 -13 1 -47 29 -61
52 -5 8 -26 38 -45 64 -27 38 -36 62 -41 110 -4 38 -17 83 -34 115 -25 48 -29
67 -33 171 -2 71 1 145 9 190 15 88 16 88 -23 143 -26 36 -29 49 -24 79 4 19
12 39 19 43 30 19 74 102 69 130 -2 6 2 14 8 18 5 3 10 14 10 23 0 16 39 101
51 112 3 3 12 22 20 42 8 21 39 72 69 114 61 85 62 88 80 126 11 23 10 31 -4
53 -22 33 -45 32 -79 -5 -29 -31 -51 -38 -62 -20 -3 6 6 15 21 20 15 6 24 13
20 17 -10 10 -51 -16 -61 -39 -10 -20 -29 -33 -94 -61 -19 -9 -29 -17 -22 -21
18 -11 2 -28 -20 -21 -13 4 -19 2 -19 -9 0 -9 -6 -13 -14 -10 -9 4 -20 -5 -30
-24 -17 -32 -42 -47 -52 -31 -4 7 -10 7 -18 -1 -8 -9 -8 -14 2 -17 6 -3 12 -9
12 -14 0 -18 -44 -59 -65 -59 -12 0 -31 -9 -43 -20 -12 -11 -28 -20 -37 -20
-13 0 -13 -3 -3 -20 7 -11 20 -20 28 -20 10 -1 6 -9 -13 -25 -28 -25 -54 -34
-42 -16 3 5 1 12 -4 15 -13 8 -42 -4 -36 -15 3 -5 -3 -16 -15 -26 -24 -21 -26
-33 -5 -33 8 0 15 5 15 11 0 5 5 7 12 3 8 -5 4 -13 -11 -26 -13 -10 -27 -15
-32 -12 -9 5 -29 -38 -32 -69 -1 -10 -11 -23 -22 -29 -26 -14 -35 -28 -35 -58
0 -27 -18 -81 -39 -119 -8 -14 -16 -48 -18 -75 -2 -28 -5 -69 -7 -91 -2 -22
-7 -78 -12 -123 -7 -88 -24 -113 -50 -77 -13 18 -46 137 -45 167 0 9 -7 19
-16 22 -8 4 -13 13 -10 20 3 8 0 20 -8 26 -7 6 -11 20 -8 30 3 12 0 20 -7 20
-8 0 -10 9 -6 25 5 18 2 25 -9 25 -18 0 -19 12 -3 28 9 9 7 12 -11 12 -20 0
-22 4 -17 25 4 16 2 25 -5 25 -7 0 -9 9 -5 25 5 19 2 25 -9 25 -12 0 -15 6
-10 19 3 11 1 22 -5 26 -6 4 -8 15 -5 25 3 10 2 21 -4 24 -5 4 -8 62 -7 139 3
104 8 145 25 194 21 63 60 155 87 205 8 15 27 62 43 106 22 61 45 101 104 174
41 53 90 106 109 119 18 13 48 38 66 56 18 18 44 36 57 39 14 3 25 10 25 14 0
5 8 11 18 14 9 3 34 22 55 41 21 19 50 38 65 41 15 4 32 10 37 14 6 4 35 16
65 28 57 21 247 33 281 18 9 -4 20 -6 25 -4 5 1 34 -1 65 -5 124 -15 190 35
349 268 48 71 149 174 191 195 19 10 62 24 95 31 57 11 62 10 139 -20 44 -17
87 -31 96 -31 9 0 29 16 43 35 30 38 107 84 144 85 13 0 38 -7 56 -15z m-2664
-1895 c4 -6 14 -8 22 -5 10 4 17 -1 21 -14 3 -12 11 -23 19 -25 7 -2 33 -9 57
-16 28 -7 45 -18 48 -31 3 -10 10 -19 15 -19 5 0 14 -13 19 -30 6 -16 15 -30
20 -30 4 0 6 -6 3 -13 -3 -8 2 -20 11 -27 8 -7 15 -21 15 -32 0 -10 8 -30 17
-44 11 -17 16 -43 14 -74 -1 -30 3 -53 12 -61 7 -8 12 -20 9 -27 -2 -7 1 -18
6 -25 7 -8 4 -24 -9 -52 -11 -23 -15 -41 -10 -43 7 -2 6 -10 -1 -21 -6 -11 -8
-26 -3 -37 14 -33 16 -76 4 -90 -9 -11 -8 -14 4 -14 12 0 14 -8 10 -40 -4 -27
-2 -40 6 -40 14 0 4 -73 -10 -78 -5 -2 -8 -20 -8 -40 1 -20 3 -29 6 -19 9 34
24 17 17 -20 -8 -45 -14 -55 -14 -25 0 12 -4 22 -9 22 -12 0 -7 -67 7 -100 8
-19 7 -28 -4 -36 -8 -6 -14 -18 -14 -27 0 -9 -4 -19 -10 -22 -17 -10 -11 -25
10 -25 22 0 27 -25 8 -34 -10 -5 -10 -7 0 -12 18 -8 15 -44 -4 -44 -13 0 -15
-5 -8 -27 5 -16 7 -49 6 -75 -1 -26 3 -50 8 -53 6 -3 10 4 10 17 0 21 1 22 18
5 16 -17 16 -19 -1 -32 -14 -10 -15 -14 -5 -18 10 -4 7 -11 -8 -24 -24 -21
-47 -61 -49 -83 -1 -8 -2 -23 -3 -32 -1 -10 -10 -18 -21 -18 -14 0 -18 -5 -14
-21 5 -19 4 -20 -15 -8 -18 11 -24 10 -41 -5 -12 -11 -21 -25 -21 -33 0 -7 -4
-13 -10 -13 -5 0 -10 -6 -10 -14 0 -12 -15 -14 -87 -9 -49 3 -116 6 -150 7
-46 1 -63 5 -63 15 0 10 -8 11 -27 7 -55 -14 -139 -18 -123 -7 13 9 12 11 -4
11 -10 0 -27 11 -38 25 -10 13 -25 24 -31 22 -7 -1 -11 6 -11 15 1 10 -4 14
-12 11 -8 -3 -14 -11 -14 -19 0 -18 -14 -18 -30 1 -7 9 -8 15 -2 15 10 0 22
54 22 97 0 12 6 26 13 30 6 4 18 20 26 35 8 15 22 30 32 33 10 3 21 15 24 26
4 10 11 19 16 19 5 0 9 7 9 15 0 18 59 117 77 128 7 4 13 16 13 25 0 10 6 24
13 31 10 10 8 15 -7 27 -11 8 -14 14 -7 14 7 0 9 5 6 10 -3 6 -26 10 -50 10
-24 0 -47 -4 -50 -10 -3 -5 -15 -10 -26 -10 -10 0 -19 -5 -19 -11 0 -6 -9 -9
-19 -6 -12 3 -27 -3 -37 -14 -9 -10 -26 -19 -37 -19 -11 0 -26 -8 -33 -17 -20
-28 -37 -4 -22 30 7 15 16 27 21 27 4 0 7 7 7 15 0 9 7 18 15 21 8 4 15 13 15
20 0 8 7 17 15 20 8 4 15 12 15 20 0 8 52 65 115 128 104 104 134 145 112 154
-4 2 -33 -4 -65 -13 -31 -9 -75 -21 -97 -27 -62 -16 -97 -28 -135 -48 -53 -28
-153 -64 -168 -61 -8 1 -20 -3 -27 -9 -8 -7 -19 -9 -25 -5 -5 3 -10 2 -10 -4
0 -14 -50 -18 -78 -7 -13 5 -21 16 -20 25 2 9 -5 23 -16 32 -27 22 -30 56 -6
82 12 12 23 32 26 44 4 13 10 23 14 23 11 0 61 52 56 58 -3 2 -19 -6 -36 -18
-17 -12 -34 -19 -38 -15 -4 4 -1 10 6 12 6 3 12 14 12 26 0 11 3 18 6 14 3 -3
15 3 27 14 11 10 27 19 34 19 7 0 13 4 13 10 0 5 5 9 11 7 6 -1 14 4 16 11 4
11 1 12 -15 3 -14 -8 -29 -8 -47 -1 -35 13 -46 13 -44 -2 4 -30 -2 -38 -27
-38 -30 0 -54 -12 -88 -43 -39 -36 -55 -47 -65 -47 -6 0 -17 -13 -26 -29 -18
-36 -43 -45 -80 -31 -32 12 -49 3 -22 -12 16 -8 13 -13 -23 -39 -22 -16 -40
-36 -40 -44 0 -8 -7 -15 -15 -15 -9 0 -15 9 -15 23 -1 25 -22 57 -39 57 -16 0
-14 35 4 50 8 7 15 19 15 27 0 9 6 13 15 10 14 -6 75 46 75 64 0 5 9 9 20 9
11 0 20 6 20 14 0 8 15 24 34 35 19 12 37 28 40 36 3 8 12 15 20 15 7 0 21 16
30 35 9 19 21 37 26 40 6 3 10 15 10 25 0 11 12 24 29 31 16 7 27 18 24 25 -2
6 8 21 22 32 15 12 24 25 21 30 -3 6 1 15 9 22 8 7 15 19 15 26 0 7 6 11 14 8
27 -11 98 38 207 141 15 14 31 25 36 25 6 0 18 9 29 21 31 34 113 71 141 64
33 -8 166 12 201 31 32 16 191 12 202 -6z m731 -484 c-23 -24 -51 -25 -51 -2
0 20 11 26 43 26 l30 0 -22 -24z m-5098 -63 c-7 -2 -19 -2 -25 0 -7 3 -2 5 12
5 14 0 19 -2 13 -5z m402 -99 c22 -14 25 -14 25 -1 0 10 11 15 40 15 36 1 40
-2 40 -23 0 -13 4 -26 9 -29 11 -7 9 -126 -2 -126 -5 0 -5 -9 -2 -20 8 -25 -9
-26 -27 -2 -7 9 -22 22 -33 28 -12 7 -20 22 -21 40 -1 15 -6 30 -13 32 -6 2
-11 10 -11 18 0 8 -4 14 -10 14 -12 0 -13 -13 -3 -24 8 -7 13 -36 7 -36 -2 0
-12 8 -21 18 -22 21 -23 63 -3 79 13 11 12 12 -7 13 -13 0 -23 5 -23 10 0 15
28 12 55 -6z m2692 -196 c-3 -8 -6 -5 -6 6 -1 11 2 17 5 13 3 -3 4 -12 1 -19z
m3489 -285 c-10 -10 -19 5 -10 18 6 11 8 11 12 0 2 -7 1 -15 -2 -18z m-3045
-545 c0 -13 3 -17 6 -10 2 6 22 12 43 12 21 0 40 4 42 9 2 5 32 3 70 -4 38 -7
88 -10 113 -8 57 7 82 -2 65 -22 -7 -8 -10 -27 -7 -42 6 -33 -1 -53 -18 -53
-15 0 -30 -35 -21 -48 3 -5 -2 -21 -10 -36 -7 -16 -14 -34 -14 -41 0 -13 57
-41 76 -37 6 1 31 -8 55 -21 46 -25 89 -77 89 -109 0 -31 -51 -94 -85 -107
-17 -6 -49 -27 -71 -46 -21 -19 -44 -35 -50 -35 -5 0 -29 -9 -52 -20 -22 -11
-46 -20 -52 -20 -5 0 -10 -4 -10 -10 0 -5 -7 -10 -15 -10 -8 0 -15 -4 -15 -10
0 -5 -9 -10 -20 -10 -12 0 -31 -9 -43 -20 -17 -17 -29 -20 -61 -14 -70 12
-142 103 -176 224 -7 25 -16 54 -20 65 -27 69 -32 87 -27 105 3 12 -2 27 -11
37 -10 10 -15 29 -13 50 2 21 -4 41 -13 52 -9 10 -19 40 -22 67 l-6 50 51 32
c41 25 63 32 112 33 33 1 62 6 65 11 3 4 14 8 25 8 13 0 19 -7 20 -22z m1014
-8 c3 -5 -1 -10 -9 -10 -9 0 -16 5 -16 10 0 6 4 10 9 10 6 0 13 -4 16 -10z
m2518 -73 c8 -21 -7 -39 -26 -31 -24 9 -22 44 2 44 10 0 21 -6 24 -13z m84
-69 c-3 -8 -6 -5 -6 6 -1 11 2 17 5 13 3 -3 4 -12 1 -19z m23 -76 c0 -5 -7 -9
-15 -9 -8 0 -15 4 -15 9 0 4 7 8 15 8 8 0 15 -4 15 -8z m70 -17 c10 -12 10
-15 -4 -15 -9 0 -16 7 -16 15 0 8 2 15 4 15 2 0 9 -7 16 -15z m224 9 c25 -9
19 -24 -9 -24 -24 0 -32 10 -18 23 8 8 8 8 27 1z m-299 -14 c3 -5 -1 -10 -10
-10 -9 0 -13 5 -10 10 3 6 8 10 10 10 2 0 7 -4 10 -10z m-428 -32 c-3 -7 -5
-2 -5 12 0 14 2 19 5 13 2 -7 2 -19 0 -25z m723 -9 c0 -15 -7 -19 -39 -19 -32
0 -39 4 -43 23 -4 20 -1 22 39 18 34 -2 43 -7 43 -22z m-100 2 c0 -14 -18 -23
-30 -16 -6 4 -8 11 -5 16 8 12 35 12 35 0z m-565 -22 c10 -15 -1 -23 -20 -15
-9 3 -13 10 -10 16 8 13 22 13 30 -1z m695 -33 c0 -11 -19 -15 -25 -6 -3 5 1
10 9 10 9 0 16 -2 16 -4z m-891 -218 c0 -13 -3 -17 -6 -10 -2 6 -11 12 -19 12
-8 0 -14 5 -14 10 0 6 9 10 20 10 14 0 20 -6 19 -22z m408 -14 c-3 -3 -12 -4
-19 -1 -8 3 -5 6 6 6 11 1 17 -2 13 -5z m53 -48 c0 -9 -8 -12 -25 -8 -14 2
-25 8 -25 13 0 5 11 9 25 9 14 0 25 -6 25 -14z m33 -43 c-7 -2 -19 -2 -25 0
-7 3 -2 5 12 5 14 0 19 -2 13 -5z m27 -43 c0 -5 -2 -10 -4 -10 -3 0 -8 5 -11
10 -3 6 -1 10 4 10 6 0 11 -4 11 -10z m48 -42 c-6 -18 -28 -21 -28 -4 0 9 7
16 16 16 9 0 14 -5 12 -12z m562 -28 c0 -5 -7 -10 -15 -10 -8 0 -15 5 -15 10
0 6 7 10 15 10 8 0 15 -4 15 -10z m-220 -90 c0 -5 -11 -10 -25 -10 -14 0 -25
5 -25 10 0 6 11 10 25 10 14 0 25 -4 25 -10z m430 -360 c0 -5 -2 -10 -4 -10
-3 0 -8 5 -11 10 -3 6 -1 10 4 10 6 0 11 -4 11 -10z m800 -55 c0 -8 -6 -15
-14 -15 -8 0 -17 -6 -19 -12 -4 -9 -6 -10 -6 -1 -1 11 25 43 35 43 2 0 4 -7 4
-15z m-3300 -35 c0 -5 -5 -10 -11 -10 -5 0 -7 5 -4 10 3 6 8 10 11 10 2 0 4
-4 4 -10z m-295 -530 c3 -5 1 -10 -4 -10 -6 0 -11 5 -11 10 0 6 2 10 4 10 3 0
8 -4 11 -10z m-2239 -354 c-7 -36 -19 -46 -32 -25 -4 7 1 16 10 21 9 5 16 17
16 26 -1 16 -1 16 -11 0 -13 -23 -44 -24 -35 -2 3 9 6 18 6 20 0 2 7 4 15 4 8
0 15 8 16 18 0 14 2 13 11 -5 6 -12 7 -38 4 -57z m-82 20 c-3 -8 -12 -17 -20
-20 -12 -4 -12 -2 -4 14 12 23 32 27 24 6z m156 -66 c0 -5 -5 -10 -11 -10 -5
0 -7 5 -4 10 3 6 8 10 11 10 2 0 4 -4 4 -10z m85 -31 c11 -16 1 -19 -13 -3 -7
8 -8 14 -3 14 5 0 13 -5 16 -11z m2115 -79 c0 -10 -31 -23 -38 -15 -8 7 19 35
29 29 5 -3 9 -9 9 -14z m-220 -70 c0 -5 -4 -10 -10 -10 -5 0 -10 5 -10 10 0 6
5 10 10 10 6 0 10 -4 10 -10z m109 -31 c-16 -10 -23 -4 -14 10 3 6 11 8 17 5
6 -4 5 -9 -3 -15z m-34 -39 c3 -5 1 -10 -4 -10 -6 0 -11 5 -11 10 0 6 2 10 4
10 3 0 8 -4 11 -10z m285 -301 c0 -25 -60 -69 -104 -76 -31 -5 -36 -3 -36 14
0 24 34 57 80 76 41 16 60 12 60 -14z m-1453 -95 c-3 -3 -12 -4 -19 -1 -8 3
-5 6 6 6 11 1 17 -2 13 -5z m-3703 -309 c-11 -8 -25 -15 -31 -15 -22 0 -14 19
15 34 31 17 44 2 16 -19z m56 -20 c7 -8 18 -15 25 -15 6 0 24 -11 40 -24 20
-18 26 -29 20 -43 -5 -12 -9 -14 -12 -5 -3 6 -13 12 -23 12 -13 0 -17 5 -13
20 3 12 0 20 -7 20 -20 0 -69 -33 -73 -49 -3 -11 -7 -7 -15 12 -6 15 -17 27
-24 27 -14 0 -43 39 -35 47 7 6 50 -17 62 -34 9 -12 15 -11 35 6 20 16 22 20
8 21 -20 0 -35 20 -15 20 8 0 20 -7 27 -15z m155 6 c-3 -5 -1 -12 5 -16 5 -3
10 -1 10 4 0 6 9 11 20 11 28 0 25 -11 -13 -41 -39 -31 -87 -30 -87 2 0 11 7
19 15 19 8 0 15 4 15 9 0 5 8 12 18 14 9 3 18 5 20 6 2 0 1 -3 -3 -8z m765
-42 c0 -11 -4 -17 -10 -14 -5 3 -10 13 -10 21 0 8 5 14 10 14 6 0 10 -9 10
-21z m-73 -11 c-3 -8 -6 -5 -6 6 -1 11 2 17 5 13 3 -3 4 -12 1 -19z m113 12
c0 -5 -4 -10 -10 -10 -5 0 -10 5 -10 10 0 6 5 10 10 10 6 0 10 -4 10 -10z
m-1160 -176 c0 -14 -8 -16 -45 -11 -27 4 -45 3 -45 -3 0 -6 -7 -10 -15 -10
-14 0 -21 21 -11 31 2 2 29 5 60 6 46 2 56 0 56 -13z m-98 -54 c16 -17 34 -28
40 -24 7 5 3 10 -10 15 -12 5 -22 15 -22 24 0 11 11 15 48 14 38 0 43 -2 25
-9 -31 -12 -29 -30 2 -30 23 0 25 -3 19 -27 -9 -36 -11 -38 -28 -24 -12 10
-20 10 -38 -3 -30 -21 -74 -20 -87 2 -8 13 -10 14 -11 2 0 -8 -7 -2 -15 14
-19 35 -19 37 0 30 18 -7 20 17 3 34 -9 9 -6 12 16 12 19 0 39 -10 58 -30z
m4293 -220 c-3 -5 1 -10 10 -10 22 0 11 -38 -17 -62 -25 -22 -32 -22 -52 -2
-24 24 -19 42 17 64 35 22 52 26 42 10z m12 -136 c-3 -3 -12 -4 -19 -1 -8 3
-5 6 6 6 11 1 17 -2 13 -5z m-3137 -128 c0 -2 -7 -6 -15 -10 -8 -3 -15 -1 -15
4 0 6 7 10 15 10 8 0 15 -2 15 -4z m-46 -31 c-4 -8 -1 -15 5 -15 26 0 8 -29
-21 -35 -18 -4 -42 -9 -53 -12 -17 -5 -18 -4 -6 11 7 9 22 16 32 16 21 0 34
17 17 22 -15 5 -1 28 17 28 9 0 12 -6 9 -15z m106 -7 c0 -5 7 -8 15 -8 22 0
18 -21 -5 -27 -11 -3 -20 -10 -20 -15 0 -19 -45 -3 -55 20 -5 12 -13 22 -17
22 -5 0 -8 5 -8 10 0 6 20 9 45 8 25 -2 45 -6 45 -10z m-84 -106 c1 -17 1 -18
-3 -3 -2 11 -14 22 -26 25 -18 3 -18 4 3 3 18 -2 25 -8 26 -25z m3079 -73 c12
-19 -4 -56 -27 -62 -26 -7 -48 8 -48 34 0 30 60 53 75 28z m-3145 -709 l-25
-8 27 -1 c15 -1 30 -6 33 -12 4 -6 13 -8 20 -5 19 7 47 -17 50 -45 2 -13 6
-32 10 -41 10 -24 -23 -52 -84 -72 -54 -17 -71 -15 -71 10 0 8 -9 14 -20 14
-16 0 -20 7 -20 30 0 17 -4 30 -10 30 -13 0 -13 37 -1 45 5 3 12 19 16 35 6
28 9 30 53 29 39 -1 43 -2 22 -9z"/>
<path d="M6565 8030 c3 -5 10 -10 16 -10 5 0 9 5 9 10 0 6 -7 10 -16 10 -8 0
-12 -4 -9 -10z"/>
<path d="M8320 7217 c0 -13 -5 -17 -17 -13 -30 9 -63 -27 -63 -68 0 -35 -1
-36 -38 -36 -37 0 -67 -15 -104 -52 -10 -10 -18 -22 -18 -27 0 -5 -9 -12 -19
-16 -11 -3 -22 -14 -25 -23 -5 -13 -3 -113 4 -214 0 -4 9 -10 20 -13 17 -5 20
-16 22 -63 1 -50 2 -52 5 -14 5 57 33 59 33 3 0 -22 6 -42 13 -45 8 -3 6 -10
-8 -23 -12 -10 -24 -26 -28 -35 -8 -22 -43 -23 -63 -3 -9 8 -26 15 -38 15 -13
0 -29 7 -36 15 -16 20 -38 19 -42 -1 -2 -9 -19 -22 -38 -28 -22 -7 -36 -18
-38 -31 -3 -19 -2 -19 11 -2 8 9 19 17 26 17 16 0 14 -25 -4 -40 -8 -7 -15
-19 -15 -26 0 -8 -4 -14 -10 -14 -5 0 -10 -17 -10 -38 0 -79 -78 -77 -82 3
l-1 40 -4 -38 c-3 -25 2 -48 12 -64 12 -18 14 -28 6 -36 -18 -18 -14 -67 5
-67 12 0 15 7 12 25 -3 14 -2 28 3 31 13 7 47 -18 53 -39 6 -24 49 -20 54 6 3
13 -3 17 -27 17 -34 0 -39 11 -16 30 8 7 15 21 15 31 0 11 5 19 10 19 6 0 10
-8 10 -19 0 -10 7 -24 15 -31 17 -14 20 -66 5 -75 -18 -11 -10 -35 12 -35 l21
0 -21 -19 c-12 -10 -22 -21 -22 -25 0 -11 54 7 83 28 28 21 32 40 21 109 -5
30 -11 37 -29 37 -13 0 -25 -7 -29 -15 -6 -17 -26 -21 -26 -5 0 19 42 52 68
54 27 1 63 30 78 63 6 14 9 8 12 -24 3 -39 6 -43 31 -43 18 0 38 -12 61 -34
18 -19 42 -37 54 -39 19 -4 19 -4 -3 -6 -19 -1 -21 -4 -11 -16 9 -11 8 -20
-10 -45 l-22 -31 36 6 c29 6 37 4 42 -11 4 -11 13 -26 20 -34 6 -8 16 -46 22
-85 5 -38 13 -78 17 -87 5 -13 3 -18 -9 -18 -19 0 -21 -11 -4 -28 8 -8 8 -15
1 -24 -6 -7 -13 -35 -16 -63 -2 -27 -3 -42 0 -32 5 21 33 23 33 2 0 -18 12
-19 29 -2 11 10 12 8 7 -9 -7 -24 19 -58 38 -51 43 18 46 19 46 4 0 -22 28
-47 45 -41 12 5 14 -7 12 -72 -1 -55 2 -79 11 -81 6 -3 12 -11 12 -19 0 -8 8
-14 18 -14 10 0 23 -5 30 -12 9 -9 12 -9 12 3 1 9 8 5 21 -11 19 -22 19 -25 5
-28 -23 -5 -20 -18 12 -41 23 -17 25 -22 12 -31 -10 -6 -11 -10 -2 -10 6 0 12
-7 12 -15 0 -8 5 -15 10 -15 6 0 10 7 10 15 0 8 9 15 20 15 11 0 20 -7 20 -15
0 -8 5 -15 10 -15 6 0 10 7 10 15 0 13 32 21 63 16 5 -1 6 3 2 9 -3 5 -1 10 4
10 6 0 11 7 11 15 0 8 -8 15 -18 15 -23 0 -62 32 -62 51 0 11 2 11 10 -1 7
-11 10 -5 10 23 0 30 4 37 20 37 17 0 20 7 20 45 0 25 5 45 10 45 6 0 10 14
10 30 0 17 -4 30 -10 30 -5 0 -10 8 -10 18 0 10 -13 32 -30 50 -20 22 -24 32
-14 30 9 -2 21 5 28 15 14 22 -4 53 -28 49 -15 -3 -15 0 -4 20 7 12 21 29 31
36 23 18 22 32 -3 32 -11 0 -20 5 -20 10 0 6 7 10 15 10 8 0 15 9 15 20 0 11
-7 20 -15 20 -8 0 -15 5 -15 10 0 6 9 10 20 10 17 0 20 7 20 45 0 49 -27 115
-47 115 -17 0 -17 17 1 27 17 10 40 53 27 53 -5 0 -11 -7 -15 -15 -8 -22 -32
-18 -32 5 0 13 7 20 21 20 28 0 49 34 31 49 -7 6 -21 9 -30 5 -9 -3 -16 -1
-16 5 0 6 7 11 16 11 11 0 14 6 8 23 -3 12 -11 24 -15 25 -18 7 -8 32 11 32
19 0 20 1 5 30 -9 17 -21 27 -28 24 -24 -9 -40 23 -34 66 5 40 5 40 -29 40
-19 0 -34 5 -34 11 0 5 5 7 10 4 6 -3 10 3 10 13 0 12 -9 22 -21 25 -19 5 -21
11 -17 56 5 46 3 51 -15 51 -20 0 -20 1 -2 13 25 19 10 37 -28 34 -23 -1 -32
2 -32 13 0 8 8 14 18 14 9 -1 17 2 17 6 0 4 -8 11 -17 15 -17 6 -17 7 0 19 22
17 22 26 -3 26 -15 0 -20 7 -20 24 0 14 -4 28 -10 31 -5 3 -10 15 -10 26 0 14
-7 19 -25 19 -29 0 -33 15 -8 29 15 8 14 12 -15 28 -17 10 -32 26 -32 36 0 21
-23 47 -41 47 -7 0 -23 12 -36 28 -18 22 -22 24 -23 9z m-225 -407 c3 -5 1
-10 -4 -10 -6 0 -11 5 -11 10 0 6 2 10 4 10 3 0 8 -4 11 -10z m85 -254 c0 -3
-4 -8 -10 -11 -5 -3 -10 -1 -10 4 0 6 5 11 10 11 6 0 10 -2 10 -4z m-207 -71
c-39 -35 -73 -34 -39 1 8 8 21 14 29 14 8 0 18 8 22 18 5 12 9 13 12 4 3 -7
-8 -24 -24 -37z m204 -81 c-3 -3 -12 -4 -19 -1 -8 3 -5 6 6 6 11 1 17 -2 13
-5z m-337 -46 c0 -16 -3 -19 -11 -11 -6 6 -8 16 -5 22 11 17 16 13 16 -11z
m892 -330 c-9 -9 -12 -7 -12 12 0 19 3 21 12 12 9 -9 9 -15 0 -24z m-292 -158
c0 -5 -5 -10 -11 -10 -5 0 -7 5 -4 10 3 6 8 10 11 10 2 0 4 -4 4 -10z m96
-267 c-11 -11 -19 6 -11 24 8 17 8 17 12 0 3 -10 2 -21 -1 -24z m184 -11 c0
-5 -7 -9 -15 -9 -8 0 -15 4 -15 9 0 4 7 8 15 8 8 0 15 -4 15 -8z"/>
<path d="M7990 6976 c0 -8 -8 -16 -17 -18 -16 -3 -15 -6 5 -16 21 -12 22 -11
22 18 0 16 -2 30 -5 30 -3 0 -5 -6 -5 -14z"/>
<path d="M7630 6871 c0 -6 5 -13 10 -16 6 -3 10 1 10 9 0 9 -4 16 -10 16 -5 0
-10 -4 -10 -9z"/>
<path d="M7585 6810 c-3 -5 1 -10 10 -10 9 0 13 5 10 10 -3 6 -8 10 -10 10 -2
0 -7 -4 -10 -10z"/>
<path d="M7465 6695 c0 -17 4 -24 13 -20 8 3 20 5 28 5 23 0 16 27 -8 34 -33
8 -33 8 -33 -19z"/>
<path d="M7768 6643 c7 -3 16 -2 19 1 4 3 -2 6 -13 5 -11 0 -14 -3 -6 -6z"/>
<path d="M7975 6630 c3 -5 10 -10 16 -10 5 0 9 5 9 10 0 6 -7 10 -16 10 -8 0
-12 -4 -9 -10z"/>
<path d="M8700 6575 c0 -8 5 -15 10 -15 6 0 10 7 10 15 0 8 -4 15 -10 15 -5 0
-10 -7 -10 -15z"/>
<path d="M8081 6364 c0 -11 3 -14 6 -6 3 7 2 16 -1 19 -3 4 -6 -2 -5 -13z"/>
<path d="M7740 6360 c0 -5 5 -10 10 -10 6 0 10 5 10 10 0 6 -4 10 -10 10 -5 0
-10 -4 -10 -10z"/>
<path d="M7680 6286 c0 -42 -2 -46 -25 -46 -15 0 -25 -6 -25 -14 0 -24 20 -29
36 -10 14 19 14 19 28 0 8 -10 19 -15 25 -11 14 8 14 35 1 35 -5 0 -10 9 -10
20 0 11 5 20 10 20 6 0 10 9 10 20 0 11 -4 20 -9 20 -5 0 -16 3 -25 6 -13 5
-16 -2 -16 -40z"/>
<path d="M8060 6231 c0 -6 5 -13 10 -16 6 -3 10 1 10 9 0 9 -4 16 -10 16 -5 0
-10 -4 -10 -9z"/>
<path d="M8231 6194 c0 -11 3 -14 6 -6 3 7 2 16 -1 19 -3 4 -6 -2 -5 -13z"/>
<path d="M7985 6190 c-3 -5 -1 -10 4 -10 6 0 11 5 11 10 0 6 -2 10 -4 10 -3 0
-8 -4 -11 -10z"/>
<path d="M8800 6169 c0 -12 5 -19 12 -17 18 6 20 25 3 31 -10 5 -15 0 -15 -14z"/>
<path d="M7916 6164 c-3 -9 -3 -20 0 -26 3 -5 -3 -16 -15 -24 -12 -8 -21 -23
-21 -33 0 -36 -40 -34 -53 2 -7 20 -42 20 -42 0 0 -7 -10 -21 -22 -33 -25 -23
-30 -46 -10 -53 7 -3 0 -16 -20 -36 -38 -36 -40 -41 -13 -41 11 0 20 5 20 10
0 22 20 8 26 -17 4 -16 11 -32 18 -38 6 -5 11 -16 12 -22 3 -38 5 -41 24 -36
11 3 20 9 20 13 0 5 10 10 23 13 20 3 20 4 3 12 -12 5 -21 3 -27 -6 -11 -19
-34 3 -26 25 8 21 41 20 72 0 23 -15 27 -15 50 0 32 21 34 21 47 -11 9 -22 12
-24 15 -10 3 12 15 17 41 17 21 0 56 11 81 25 44 26 81 32 81 15 0 -5 14 -10
30 -10 19 0 30 5 29 13 -1 6 1 20 5 29 10 21 -15 83 -26 65 -5 -8 -11 -6 -22
8 -12 16 -17 17 -27 8 -10 -10 -8 -18 11 -38 l23 -24 -27 -11 c-15 -5 -34 -10
-42 -10 -8 0 -14 -4 -14 -10 0 -5 -9 -10 -20 -10 -17 0 -18 3 -8 25 6 14 19
25 30 25 10 0 18 7 18 15 0 11 -11 15 -40 15 -39 0 -40 1 -40 35 0 29 -9 44
-45 80 -24 25 -50 45 -57 45 -8 -1 -7 -5 5 -14 9 -7 17 -18 17 -25 0 -16 -25
-14 -40 4 -7 8 -19 15 -26 15 -17 0 -18 17 -2 22 8 3 9 6 1 11 -6 4 -14 0 -17
-9z"/>
<path d="M8020 6170 c0 -5 7 -10 16 -10 8 0 12 5 9 10 -3 6 -10 10 -16 10 -5
0 -9 -4 -9 -10z"/>
<path d="M7835 6160 c-3 -6 1 -7 9 -4 18 7 21 14 7 14 -6 0 -13 -4 -16 -10z"/>
<path d="M7840 6126 c0 -9 5 -16 10 -16 6 0 10 4 10 9 0 6 -4 13 -10 16 -5 3
-10 -1 -10 -9z"/>
<path d="M8865 6131 c-3 -5 -1 -12 5 -16 5 -3 10 1 10 9 0 18 -6 21 -15 7z"/>
<path d="M7704 5855 c-4 -10 -14 -13 -32 -8 -17 4 -23 2 -18 -5 4 -7 -3 -14
-18 -18 -24 -6 -75 -74 -56 -74 5 0 11 4 14 8 8 14 86 1 86 -14 0 -8 9 -14 20
-14 11 0 20 5 20 10 0 6 9 10 20 10 11 0 20 5 20 11 0 7 8 17 17 24 16 12 14
16 -19 49 -40 40 -46 43 -54 21z"/>
<path d="M8000 5800 c0 -22 8 -25 30 -10 13 9 13 11 0 20 -22 15 -30 12 -30
-10z"/>
<path d="M8320 5749 c0 -5 5 -7 10 -4 6 3 10 8 10 11 0 2 -4 4 -10 4 -5 0 -10
-5 -10 -11z"/>
<path d="M8000 5720 c0 -22 8 -25 30 -10 13 9 13 11 0 20 -22 15 -30 12 -30
-10z"/>
<path d="M7578 5593 c7 -3 16 -2 19 1 4 3 -2 6 -13 5 -11 0 -14 -3 -6 -6z"/>
<path d="M8065 5590 c3 -5 8 -10 11 -10 2 0 4 5 4 10 0 6 -5 10 -11 10 -5 0
-7 -4 -4 -10z"/>
<path d="M8481 5584 c0 -11 3 -14 6 -6 3 7 2 16 -1 19 -3 4 -6 -2 -5 -13z"/>
<path d="M8588 5443 c7 -3 16 -2 19 1 4 3 -2 6 -13 5 -11 0 -14 -3 -6 -6z"/>
<path d="M8740 5329 c0 -17 -4 -28 -10 -24 -5 3 -10 -1 -10 -9 0 -21 10 -20
26 2 13 16 15 16 28 0 7 -10 21 -18 30 -18 16 0 16 -2 2 -22 -26 -37 -21 -57
14 -52 33 6 42 -11 10 -19 -30 -8 -24 -33 11 -51 27 -13 33 -13 45 -1 17 17
18 41 2 49 -10 5 -10 7 0 12 18 9 15 21 -8 27 -13 3 -20 14 -20 29 0 31 -52
72 -69 55 -8 -8 -11 -3 -11 21 0 25 -4 32 -20 32 -16 0 -20 -7 -20 -31z m136
-186 c-10 -10 -19 5 -10 18 6 11 8 11 12 0 2 -7 1 -15 -2 -18z"/>
<path d="M8820 5095 c-10 -12 -10 -15 4 -15 9 0 16 7 16 15 0 8 -2 15 -4 15
-2 0 -9 -7 -16 -15z"/>
<path d="M8880 5086 c0 -9 5 -16 10 -16 6 0 10 4 10 9 0 6 -4 13 -10 16 -5 3
-10 -1 -10 -9z"/>
<path d="M8785 5070 c3 -5 8 -10 11 -10 2 0 4 5 4 10 0 6 -5 10 -11 10 -5 0
-7 -4 -4 -10z"/>
<path d="M8938 5043 c7 -3 16 -2 19 1 4 3 -2 6 -13 5 -11 0 -14 -3 -6 -6z"/>
<path d="M4418 6793 c-9 -2 -24 -15 -32 -29 -9 -13 -24 -24 -34 -24 -9 0 -26
-8 -37 -16 -20 -16 -19 -16 4 -9 13 4 47 8 75 8 28 1 41 3 29 5 -22 3 -33 22
-14 22 12 0 41 29 41 41 0 9 -4 10 -32 2z"/>
<path d="M1150 6630 c0 -5 5 -10 10 -10 6 0 10 5 10 10 0 6 -4 10 -10 10 -5 0
-10 -4 -10 -10z"/>
<path d="M1178 6553 c7 -3 16 -2 19 1 4 3 -2 6 -13 5 -11 0 -14 -3 -6 -6z"/>
<path d="M4530 5530 c0 -5 7 -10 15 -10 8 0 15 5 15 10 0 6 -7 10 -15 10 -8 0
-15 -4 -15 -10z"/>
<path d="M1825 1590 c3 -5 8 -10 11 -10 2 0 4 5 4 10 0 6 -5 10 -11 10 -5 0
-7 -4 -4 -10z"/>
<path d="M1645 707 c-4 -10 -5 -21 -1 -24 10 -10 18 4 13 24 -4 17 -4 17 -12
0z"/>
<path d="M2778 9593 c7 -3 16 -2 19 1 4 3 -2 6 -13 5 -11 0 -14 -3 -6 -6z"/>
<path d="M3460 9536 c0 -9 5 -16 10 -16 6 0 10 4 10 9 0 6 -4 13 -10 16 -5 3
-10 -1 -10 -9z"/>
<path d="M3425 9510 c3 -5 8 -10 11 -10 2 0 4 5 4 10 0 6 -5 10 -11 10 -5 0
-7 -4 -4 -10z"/>
<path d="M2823 9488 c2 -7 10 -13 17 -13 7 0 15 6 18 13 2 7 -5 12 -18 12 -13
0 -20 -5 -17 -12z"/>
<path d="M2645 9471 c-3 -5 -1 -12 5 -16 5 -3 10 1 10 9 0 18 -6 21 -15 7z"/>
<path d="M7040 4975 c0 -11 11 -15 36 -15 31 0 35 2 24 15 -7 8 -23 15 -36 15
-15 0 -24 -6 -24 -15z"/>
<path d="M6960 4974 c0 -10 31 -36 37 -31 10 10 -6 37 -22 37 -8 0 -15 -3 -15
-6z"/>
<path d="M7698 4633 c6 -2 18 -2 25 0 6 3 1 5 -13 5 -14 0 -19 -2 -12 -5z"/>
<path d="M7920 4544 c0 -8 5 -12 10 -9 6 3 10 10 10 16 0 5 -4 9 -10 9 -5 0
-10 -7 -10 -16z"/>
<path d="M9495 4423 c-36 -9 -41 -23 -7 -23 22 0 32 5 32 15 0 8 -1 14 -2 14
-2 -1 -12 -3 -23 -6z"/>
<path d="M9455 4250 c-4 -6 5 -10 20 -10 15 0 24 4 20 10 -3 6 -12 10 -20 10
-8 0 -17 -4 -20 -10z"/>
<path d="M8757 4203 c-4 -3 -7 -15 -7 -25 0 -14 6 -19 23 -16 29 4 38 48 9 48
-10 0 -22 -3 -25 -7z"/>
<path d="M8844 4165 c3 -9 0 -15 -9 -15 -8 0 -15 -9 -15 -20 0 -13 7 -20 20
-20 11 0 20 7 20 15 0 8 5 15 10 15 6 0 10 9 10 20 0 14 -7 20 -21 20 -15 0
-19 -5 -15 -15z"/>
<path d="M8873 4105 c-8 -19 -8 -25 1 -25 16 0 36 21 36 37 0 22 -24 14 -37
-12z"/>
<path d="M9230 4116 c0 -2 7 -6 15 -10 8 -3 15 -1 15 4 0 6 -7 10 -15 10 -8 0
-15 -2 -15 -4z"/>
<path d="M9572 3898 c5 -15 28 -23 28 -10 0 5 -7 13 -16 16 -10 4 -14 1 -12
-6z"/>
<path d="M5860 3856 c0 -9 5 -16 10 -16 6 0 10 4 10 9 0 6 -4 13 -10 16 -5 3
-10 -1 -10 -9z"/>
<path d="M3515 3699 c-4 -6 -5 -12 -2 -15 2 -3 7 2 10 11 7 17 1 20 -8 4z"/>
<path d="M5752 3655 c0 -16 2 -22 5 -12 2 9 2 23 0 30 -3 6 -5 -1 -5 -18z"/>
<path d="M5720 3610 c0 -5 5 -10 10 -10 6 0 10 5 10 10 0 6 -4 10 -10 10 -5 0
-10 -4 -10 -10z"/>
<path d="M6145 3351 c-78 -32 -82 -46 -35 -123 17 -26 30 -50 30 -53 0 -3 23
-53 51 -112 28 -60 54 -117 59 -128 4 -11 15 -36 24 -57 9 -20 16 -41 16 -47
0 -36 112 16 118 55 2 12 -8 47 -22 79 -15 32 -26 62 -26 67 0 6 12 24 26 41
21 25 24 37 19 66 -9 49 -19 57 -49 37 -33 -21 -56 -20 -56 2 0 9 -7 26 -15
36 -8 11 -15 26 -15 34 0 7 -12 38 -27 68 -29 59 -35 61 -98 35z"/>
<path d="M6286 2695 c-64 -41 -150 -94 -191 -116 l-75 -40 -21 35 c-12 20 -24
36 -27 36 -4 0 -28 -10 -54 -22 -45 -21 -59 -43 -41 -62 4 -4 17 -33 28 -64
23 -65 49 -77 94 -45 14 11 51 32 81 47 142 73 305 179 333 217 14 20 17 35
12 58 -4 17 -10 31 -14 31 -4 0 -60 -34 -125 -75z"/>
<path d="M3201 2404 c0 -11 3 -14 6 -6 3 7 2 16 -1 19 -3 4 -6 -2 -5 -13z"/>
<path d="M3230 2286 c0 -9 5 -16 10 -16 6 0 10 4 10 9 0 6 -4 13 -10 16 -5 3
-10 -1 -10 -9z"/>
<path d="M3326 2263 c-11 -11 -6 -23 9 -23 8 0 15 4 15 9 0 13 -16 22 -24 14z"/>
<path d="M3261 2246 c-10 -12 -8 -13 8 -9 12 3 21 9 21 14 0 14 -16 11 -29 -5z"/>
<path d="M3616 2223 c-11 -11 -6 -23 9 -23 8 0 15 4 15 9 0 13 -16 22 -24 14z"/>
<path d="M3086 2172 c-8 -14 8 -30 37 -37 21 -6 27 -4 27 9 0 9 -7 16 -15 16
-8 0 -15 5 -15 10 0 12 -27 13 -34 2z"/>
<path d="M3676 1603 c-6 -14 -5 -15 5 -6 7 7 10 15 7 18 -3 3 -9 -2 -12 -12z"/>
<path d="M4187 904 c-4 -4 -7 -30 -7 -58 0 -28 -9 -70 -19 -92 -10 -23 -22
-57 -26 -75 -3 -19 -14 -56 -25 -84 -24 -67 -70 -227 -70 -243 0 -7 -11 -28
-25 -46 -14 -18 -25 -40 -25 -49 0 -9 -4 -19 -10 -22 -5 -3 -10 -17 -10 -30 0
-13 -13 -50 -30 -82 -16 -31 -30 -72 -30 -90 0 -30 3 -33 29 -33 25 0 31 6 41
35 6 19 16 35 21 35 13 0 58 52 59 67 0 6 9 15 20 18 15 5 19 12 15 25 -7 23
11 35 30 20 15 -13 17 -10 19 25 1 14 7 19 20 17 17 -3 17 -1 -3 26 -19 27
-20 32 -6 45 29 30 53 201 32 234 -8 13 9 91 24 109 5 6 7 18 3 27 -3 8 0 18
6 22 7 5 8 10 3 14 -14 9 -26 121 -13 121 5 0 10 8 10 18 0 23 -23 55 -33 46z"/>
<path d="M4585 790 c-3 -5 -15 -10 -26 -10 -11 0 -23 -10 -28 -24 -6 -15 -20
-25 -40 -29 -26 -6 -31 -11 -31 -36 0 -16 -8 -37 -17 -46 -13 -14 -14 -21 -5
-36 10 -15 8 -21 -11 -31 -12 -7 -23 -20 -24 -28 -3 -26 -48 -145 -55 -148 -5
-2 -8 -12 -8 -23 0 -10 -4 -19 -10 -19 -5 0 -10 -9 -10 -20 0 -28 -23 -100
-32 -100 -5 0 -8 -13 -8 -28 0 -15 -9 -45 -20 -67 -11 -22 -20 -43 -20 -47 0
-4 -18 -26 -40 -50 l-39 -43 166 -3 c113 -2 169 1 173 9 4 6 10 62 14 125 6
102 47 387 61 425 2 8 11 57 19 109 8 52 17 103 21 113 8 19 -19 25 -30 7z"/>
<path d="M3485 591 c-3 -10 -4 -25 -3 -31 2 -7 -12 -17 -29 -22 -18 -5 -33
-13 -33 -19 0 -12 25 -39 36 -39 5 0 3 5 -4 12 -20 20 -14 25 33 23 44 -2 45
-1 45 27 0 54 -32 89 -45 49z"/>
<path d="M3388 463 c7 -3 16 -2 19 1 4 3 -2 6 -13 5 -11 0 -14 -3 -6 -6z"/>
<path d="M2420 181 c0 -15 -19 -35 -43 -44 -20 -8 -14 -27 9 -27 8 0 14 -10
14 -25 0 -14 4 -25 9 -25 5 0 11 -13 15 -30 l6 -30 101 0 c95 0 101 1 88 18
-31 40 -64 72 -75 72 -7 0 -17 6 -21 13 -4 7 -21 17 -38 23 -16 6 -29 15 -28
21 1 6 -7 19 -17 28 -13 12 -20 14 -20 6z"/>
<path d="M2152 164 c-12 -13 -17 -44 -6 -44 9 0 30 23 36 41 7 19 -13 21 -30
3z"/>
<path d="M2340 170 c0 -5 7 -10 15 -10 8 0 15 5 15 10 0 6 -7 10 -15 10 -8 0
-15 -4 -15 -10z"/>
<path d="M2260 136 c0 -13 -3 -31 -6 -40 -4 -11 -1 -16 10 -16 12 0 16 10 16
40 0 22 -4 40 -10 40 -5 0 -10 -11 -10 -24z"/>
<path d="M2055 120 c3 -5 10 -10 16 -10 5 0 9 5 9 10 0 6 -7 10 -16 10 -8 0
-12 -4 -9 -10z"/>
</g>
</svg>
