<svg width="24" height="24" viewBox="0 0 24 24" fill="none" xmlns="http://www.w3.org/2000/svg">
<path d="M22.8241 7.37571L21.0241 5.57571C20.9116 5.46322 20.7591 5.4 20.6 5.4C20.4409 5.4 20.2883 5.46322 20.1758 5.57571L18.2 7.55143V3.6C18.2 3.44089 18.1367 3.28821 18.0242 3.17571C17.9118 3.06322 17.7591 3 17.6 3H5.59996C5.44086 3 5.28817 3.06322 5.17568 3.17571C5.06318 3.28821 4.99996 3.44089 4.99996 3.6V20.4C4.99996 20.5591 5.06318 20.7118 5.17568 20.8243C5.28817 20.9368 5.44086 21 5.59996 21H17.6C17.7591 21 17.9118 20.9368 18.0242 20.8243C18.1367 20.7118 18.2 20.5591 18.2 20.4V12.8486L22.8241 8.22446V8.22432C22.9366 8.11182 22.9998 7.95928 22.9998 7.80017C22.9998 7.64107 22.9366 7.48852 22.8241 7.37603L22.8241 7.37571ZM17.1762 12.1757L13.7514 15.5999H12.7998V14.6483L19.0998 8.3483L20.0514 9.29986L17.1762 12.1757ZM16.9998 19.7998H6.19984V4.19983H16.9998V8.75126L11.7757 13.9754V13.9755C11.6631 14.088 11.5999 14.2406 11.5999 14.3997V16.1997C11.5999 16.3588 11.6631 16.5114 11.7756 16.6239C11.8881 16.7364 12.0408 16.7997 12.1999 16.7997H13.9999C14.159 16.7997 14.3115 16.7364 14.424 16.6238L16.9999 14.0481L16.9998 19.7998ZM20.8998 8.45126L19.9483 7.49969L20.5998 6.84813L21.5514 7.79969L20.8998 8.45126Z" fill="currentColor"/>
<path d="M7.99999 7.19988H15.2C15.4144 7.19988 15.6125 7.0855 15.7196 6.89988C15.8268 6.71425 15.8268 6.4855 15.7196 6.29988C15.6125 6.11426 15.4144 5.99988 15.2 5.99988H7.99999C7.78557 5.99988 7.5875 6.11425 7.48036 6.29988C7.37322 6.4855 7.37322 6.71426 7.48036 6.89988C7.5875 7.0855 7.78558 7.19988 7.99999 7.19988Z" fill="currentColor"/>
<path d="M12.2 9.59988C12.2 9.44077 12.1368 9.28809 12.0243 9.17559C11.9118 9.06309 11.7591 8.99988 11.6 8.99988H7.99999C7.78557 8.99988 7.5875 9.11425 7.48036 9.29988C7.37322 9.4855 7.37322 9.71426 7.48036 9.89988C7.5875 10.0855 7.78558 10.1999 7.99999 10.1999H11.6C11.7591 10.1999 11.9118 10.1367 12.0243 10.0242C12.1368 9.91167 12.2 9.75898 12.2 9.59988Z" fill="currentColor"/>
</svg>
