<svg width="100" height="100" viewBox="0 0 100 100" fill="none" xmlns="http://www.w3.org/2000/svg">
<path d="M80.6529 41.3514C81.7472 39.8716 83.8347 39.5584 85.3153 40.6528C86.7952 41.7477 87.1083 43.8346 86.0134 45.3152C85.8013 45.602 85.5089 45.9497 85.1473 46.3448L84.3348 47.1952C84.1853 47.3465 84.029 47.5016 83.8661 47.6606L82.8159 48.6573C82.6295 48.8297 82.437 49.0049 82.2394 49.183L80.9967 50.2728L79.6512 51.3961L78.2232 52.5284C77.2483 53.2812 76.2321 54.0245 75.2015 54.7271C67.3209 60.0982 58.8215 63.3331 50.0001 63.3331C41.1786 63.3331 32.6786 60.0981 24.7986 54.7271C22.7366 53.3214 20.7316 51.7522 19.0006 50.2701L17.7573 49.1797C17.5598 49.0017 17.3673 48.8265 17.1803 48.654L16.1301 47.6568L15.2339 46.7517C14.692 46.1842 14.2668 45.6937 13.985 45.3114C12.8918 43.8304 13.2071 41.7433 14.6887 40.6501C16.1697 39.5575 18.2568 39.8722 19.35 41.3538C19.4867 41.5396 19.7027 41.7896 19.9861 42.0904L20.6396 42.7561L21.4527 43.5335C21.6 43.6713 21.7534 43.8125 21.9125 43.957L22.9276 44.8577C23.1061 45.0128 23.2897 45.1702 23.4772 45.3298L24.648 46.3002C24.8506 46.4643 25.0559 46.6284 25.2646 46.7935L26.5464 47.7801C27.201 48.2712 27.874 48.755 28.5537 49.2181C35.4187 53.8973 42.6949 56.6663 50.0009 56.6663C57.3069 56.6663 64.5823 53.8973 71.448 49.2181C72.1277 48.755 72.8001 48.2711 73.4547 47.7807L74.736 46.7941C74.9447 46.6295 75.15 46.4649 75.3526 46.3014L76.5228 45.3309L77.5948 44.4007L78.5474 43.5352L79.361 42.7573L80.0155 42.0904C80.299 41.7891 80.5161 41.5385 80.6539 41.3516L80.6529 41.3514Z" fill="currentColor"/>
<path d="M44.4514 57.7643C45.5831 58.3307 46.0981 59.6393 45.7009 60.805L45.5692 61.1186L38.9029 74.4517C38.2851 75.6867 36.7835 76.1872 35.5486 75.57C34.4169 75.0036 33.9019 73.695 34.2992 72.5293L34.4309 72.2157L41.0971 58.8826C41.7149 57.6476 43.2166 57.1471 44.4514 57.7643ZM58.7304 58.589L58.9029 58.8826L65.5691 72.2157C66.1869 73.4506 65.6863 74.9523 64.4514 75.57C63.3191 76.1358 61.9631 75.7625 61.2695 74.7452L61.0971 74.4517L54.4308 61.1186C53.8131 59.8836 54.3136 58.382 55.5486 57.7643C56.5675 57.2548 57.7679 57.5065 58.5034 58.3033L58.7304 58.589ZM28.4347 51.5656C29.3225 52.4534 29.4035 53.8425 28.6769 54.8212L28.4353 55.1013L18.4353 65.1013C17.4587 66.0779 15.8756 66.0779 14.8996 65.1013C14.0117 64.214 13.9314 62.825 14.6574 61.8463L14.8996 61.5662L24.8996 51.5662C25.8756 50.5896 27.4587 50.5896 28.4347 51.5656ZM74.8219 51.324L75.102 51.5662L85.102 61.5662C86.0786 62.5422 86.0786 64.1253 85.102 65.1013C84.2147 65.9891 82.8257 66.0695 81.847 65.3435L81.5663 65.1013L71.5663 55.1013C70.5903 54.1253 70.5903 52.5422 71.5669 51.5656C72.4541 50.6783 73.8431 50.5974 74.8219 51.324Z" fill="currentColor"/>
</svg>
