<?xml version="1.0" encoding="utf-8"?>
<!-- Generator: Adobe Illustrator 23.0.3, SVG Export Plug-In . SVG Version: 6.00 Build 0)  -->
<svg version="1.1" id="레이어_1" xmlns="http://www.w3.org/2000/svg" xmlns:xlink="http://www.w3.org/1999/xlink" x="0px"
	 y="0px" viewBox="0 0 100 100" style="enable-background:new 0 0 100 100;" xml:space="preserve">
<g>
	<path d="M50.2,24c0.8,0,1.5,0,2.3,0.1c1.5,0.1,3,0.3,4.4,0.6c3.5,0.7,6.8,1.8,9.9,3.4c3.1,1.6,6.1,3.6,8.7,5.9
		c2.2,1.9,4.3,4.1,6.1,6.4c0.6,0.8,1.2,1.6,1.8,2.4c0.2,0.3,0.4,0.6,0.6,0.8c0.2,0.4,0.5,0.7,0.7,1.1c0.6,1.1,1,2.2,1.2,3.4
		c0.4,2.1,0.1,4.2-0.7,6.2c-0.2,0.4-0.4,0.9-0.6,1.3c-0.2,0.3-0.3,0.5-0.5,0.8c-0.3,0.4-0.5,0.7-0.8,1.1c-1,1.5-2.1,2.9-3.3,4.2
		c-3.1,3.6-6.8,6.7-10.9,9c-2.6,1.5-5.4,2.8-8.3,3.7c-3.4,1-6.9,1.6-10.5,1.6c-3.6,0-7.2-0.5-10.7-1.5c-3-0.9-5.8-2.1-8.5-3.7
		c-4.1-2.4-7.8-5.5-10.9-9.1c-1.2-1.3-2.3-2.7-3.3-4.2c-0.3-0.4-0.5-0.7-0.8-1.1c-0.2-0.3-0.4-0.5-0.5-0.8c-0.2-0.4-0.5-0.8-0.6-1.3
		c-0.8-1.9-1.1-4.1-0.7-6.2c0.2-1.2,0.6-2.4,1.2-3.4c0.2-0.4,0.4-0.7,0.7-1.1c0.2-0.3,0.4-0.6,0.6-0.8c0.6-0.8,1.2-1.6,1.8-2.4
		c1.8-2.3,3.9-4.5,6.1-6.4c2.6-2.2,5.4-4.2,8.4-5.7c3.1-1.6,6.5-2.8,9.9-3.5c1.4-0.3,2.8-0.5,4.2-0.6c0.7-0.1,1.5-0.1,2.2-0.1
		C49.6,24,49.9,24,50.2,24z M49.9,29.1c-0.8,0-1.7,0-2.5,0.1c-1.5,0.1-3.1,0.4-4.6,0.7c-3.9,0.9-7.5,2.5-10.9,4.7
		c-3.5,2.3-6.5,5.1-9.1,8.3c-0.6,0.8-1.2,1.6-1.8,2.4c-0.3,0.4-0.6,0.9-0.9,1.3C20,46.8,20,46.9,19.9,47c-0.2,0.4-0.4,0.9-0.6,1.3
		c-0.3,1.1-0.3,2.3,0,3.4c0.2,0.5,0.4,1,0.7,1.5c0.1,0.2,0.2,0.4,0.4,0.6c0.3,0.5,0.7,1,1.1,1.5c0.7,0.9,1.3,1.7,2.1,2.6
		c2.5,2.9,5.4,5.5,8.6,7.6c2.8,1.8,5.8,3.2,9,4.2c1.7,0.5,3.5,0.9,5.3,1.1c2.3,0.3,4.6,0.3,6.9,0c2.7-0.3,5.4-0.9,7.9-1.9
		c1-0.4,1.9-0.8,2.9-1.3c0.7-0.4,1.5-0.8,2.2-1.2c4.5-2.6,8.4-6.2,11.5-10.3c0.5-0.6,1-1.3,1.4-2c0.1-0.2,0.2-0.3,0.3-0.5
		c0.1-0.2,0.2-0.4,0.3-0.5c0.1-0.2,0.2-0.4,0.3-0.5c0.6-1.3,0.7-2.8,0.3-4.2c-0.2-0.5-0.4-1.1-0.7-1.5c-0.1-0.2-0.2-0.3-0.3-0.5
		c-0.8-1.2-1.6-2.3-2.5-3.4c-2.1-2.5-4.5-4.9-7.1-6.8c-2.3-1.7-4.8-3.2-7.4-4.3c-2.4-1-4.9-1.7-7.4-2.2c-1.6-0.3-3.2-0.4-4.8-0.4
		C50.1,29.1,50,29.1,49.9,29.1z" fill="currentColor"/>
	<path class="st0" d="M0,0v100h100V0H0z M85.1,54.3c-0.2,0.4-0.4,0.9-0.6,1.3c-0.2,0.3-0.3,0.5-0.5,0.8c-0.3,0.4-0.5,0.7-0.8,1.1
		c-1,1.5-2.1,2.9-3.3,4.2c-3.1,3.6-6.8,6.7-10.9,9c-2.6,1.5-5.4,2.8-8.3,3.7c-3.4,1-6.9,1.6-10.5,1.6c-3.6,0-7.2-0.5-10.7-1.5
		c-3-0.9-5.8-2.1-8.5-3.7c-4.1-2.4-7.8-5.5-10.9-9.1c-1.2-1.3-2.3-2.7-3.3-4.2c-0.3-0.4-0.5-0.7-0.8-1.1c-0.2-0.3-0.4-0.5-0.5-0.8
		c-0.2-0.4-0.5-0.8-0.6-1.3c-0.8-1.9-1.1-4.1-0.7-6.2c0.2-1.2,0.6-2.4,1.2-3.4c0.2-0.4,0.4-0.7,0.7-1.1c0.2-0.3,0.4-0.6,0.6-0.8
		c0.6-0.8,1.2-1.6,1.8-2.4c1.8-2.3,3.9-4.5,6.1-6.4c2.6-2.2,5.4-4.2,8.4-5.7c3.1-1.6,6.5-2.8,9.9-3.5c1.4-0.3,2.8-0.5,4.2-0.6
		c0.7-0.1,1.5-0.1,2.2-0.1c0.3,0,0.5,0,0.8,0c0.8,0,1.5,0,2.3,0.1c1.5,0.1,3,0.3,4.4,0.6c3.5,0.7,6.8,1.8,9.9,3.4
		c3.1,1.6,6.1,3.6,8.7,5.9c2.2,1.9,4.3,4.1,6.1,6.4c0.6,0.8,1.2,1.6,1.8,2.4c0.2,0.3,0.4,0.6,0.6,0.8c0.2,0.4,0.5,0.7,0.7,1.1
		c0.6,1.1,1,2.2,1.2,3.4C86.2,50.2,86,52.3,85.1,54.3z" fill="white" />
</g>
</svg>
