<svg width="24" height="24" viewBox="0 0 24 24" fill="none" xmlns="http://www.w3.org/2000/svg">
<path d="M12 0C5.376 0 0 5.376 0 12C0 18.624 5.376 24 12 24C18.624 24 24 18.624 24 12C24 5.376 18.624 0 12 0ZM12 1.84615C17.6049 1.84615 22.1538 6.39508 22.1538 12C22.1538 17.6049 17.6049 22.1538 12 22.1538C6.39508 22.1538 1.84615 17.6049 1.84615 12C1.84615 6.39508 6.39508 1.84615 12 1.84615Z" fill="currentColor"/>
<path d="M13.8459 6.69244C13.8459 7.24329 13.6271 7.77157 13.2376 8.16108C12.8481 8.55058 12.3198 8.76941 11.769 8.76941C11.2181 8.76941 10.6899 8.55058 10.3004 8.16108C9.91089 7.77157 9.69208 7.24329 9.69208 6.69244C9.69208 6.1416 9.91089 5.61331 10.3004 5.22381C10.6899 4.8343 11.2181 4.61548 11.769 4.61548C12.3198 4.61548 12.8481 4.8343 13.2376 5.22381C13.6271 5.61331 13.8459 6.1416 13.8459 6.69244Z" fill="currentColor"/>
<path d="M13.9689 17.7157C13.9562 18.2197 14.1925 18.3618 14.7678 18.4209L15.6923 18.4393V19.3846H8.47883V18.4393L9.49477 18.4209C10.1023 18.4024 10.2484 18.1661 10.2936 17.7157V12.0271C10.3001 11.1264 9.13126 11.2678 8.30769 11.2945V10.3578L13.9689 10.1538" fill="currentColor"/>
</svg>
