<svg width="100" height="100" viewBox="0 0 100 100" fill="none" xmlns="http://www.w3.org/2000/svg">
<path d="M100 50C100 22.3857 77.6143 0 50 0C22.3857 0 0 22.3857 0 50C0 74.9564 18.2843 95.6416 42.1875 99.3926V64.4531H29.4922V50H42.1875V38.9844C42.1875 26.4531 49.6521 19.5313 61.0732 19.5313C66.5437 19.5313 72.2657 20.5078 72.2657 20.5078V32.8125H65.9608C59.7495 32.8125 57.8126 36.6667 57.8126 40.6209V50H71.6797L69.4629 64.4531H57.8125V99.3926C81.7157 95.6416 100 74.9564 100 50Z" fill="#1877F2"/>
<path d="M69.4629 64.4531L71.6797 50H57.8125V40.6208C57.8125 36.6667 59.7495 32.8125 65.9607 32.8125H72.2656V20.5078C72.2656 20.5078 66.5437 19.5312 61.0732 19.5312C49.6521 19.5312 42.1875 26.4531 42.1875 38.9844V50H29.4922V64.4531H42.1875V99.3926C44.7719 99.7976 47.384 100.001 50 100C52.6578 100 55.2669 99.792 57.8125 99.3926V64.4531H69.4629Z" fill="white"/>
</svg>
