<svg width="98" height="100" viewBox="0 0 98 100" fill="none" xmlns="http://www.w3.org/2000/svg">
<path d="M49.9991 40.9089V60.2726H76.9082C75.7265 66.4999 72.1806 71.7728 66.8626 75.3182L83.0898 87.9092C92.5443 79.1822 97.9989 66.3639 97.9989 51.1367C97.9989 47.5913 97.6808 44.1819 97.0897 40.9095L49.9991 40.9089Z" fill="#4285F4"/>
<path d="M21.9778 59.5167L18.3179 62.3183L5.36316 72.409C13.5904 88.7271 30.4528 100 49.9981 100C63.4978 100 74.8158 95.5454 83.0887 87.9092L66.8615 75.3182C62.4069 78.3182 56.7251 80.1366 49.9981 80.1366C36.9982 80.1366 25.953 71.3639 21.9982 59.5456L21.9778 59.5167Z" fill="#34A853"/>
<path d="M5.36325 27.5909C1.95434 34.3179 0 41.909 0 49.9997C0 58.0905 1.95434 65.6815 5.36325 72.4085C5.36325 72.4537 21.9999 59.4994 21.9999 59.4994C20.9999 56.4994 20.4088 53.3178 20.4088 49.9992C20.4088 46.6806 20.9999 43.499 21.9999 40.499L5.36325 27.5909Z" fill="#FBBC05"/>
<path d="M49.9991 19.9091C57.3629 19.9091 63.9082 22.4545 69.1355 27.3636L83.4535 13.0456C74.7717 4.95485 63.4993 0 49.9991 0C30.4538 0 13.5904 11.2273 5.36316 27.5909L21.9993 40.5C25.9536 28.6817 36.9992 19.9091 49.9991 19.9091Z" fill="#EA4335"/>
</svg>
