<svg width="100" height="98" viewBox="0 0 100 98" fill="none" xmlns="http://www.w3.org/2000/svg">
<path fill-rule="evenodd" clip-rule="evenodd" d="M49.851 0C22.2847 0 0 22.449 0 50.2214C0 72.4214 14.2786 91.2133 34.0867 97.8643C36.5633 98.3643 37.4704 96.7837 37.4704 95.4541C37.4704 94.2898 37.3888 90.299 37.3888 86.1408C23.5214 89.1347 20.6337 80.1541 20.6337 80.1541C18.4051 74.3337 15.1031 72.8378 15.1031 72.8378C10.5643 69.7612 15.4337 69.7612 15.4337 69.7612C20.4684 70.0939 23.1102 74.9163 23.1102 74.9163C27.5663 82.5653 34.7469 80.4041 37.6357 79.0735C38.048 75.8306 39.3694 73.5857 40.7724 72.3388C29.7122 71.1745 18.0755 66.851 18.0755 47.5602C18.0755 42.0724 20.0551 37.5827 23.1918 34.0908C22.6969 32.8439 20.9633 27.6878 23.6878 20.7867C23.6878 20.7867 27.8969 19.4561 37.3878 25.9418C41.4511 24.8425 45.6416 24.2833 49.851 24.2786C54.0602 24.2786 58.351 24.8612 62.3133 25.9418C71.8051 19.4561 76.0143 20.7867 76.0143 20.7867C78.7388 27.6878 77.0041 32.8439 76.5092 34.0908C79.7286 37.5827 81.6265 42.0724 81.6265 47.5602C81.6265 66.851 69.9898 71.0908 58.8469 72.3388C60.6633 73.9184 62.2306 76.9112 62.2306 81.651C62.2306 88.3857 62.149 93.7908 62.149 95.4531C62.149 96.7837 63.0571 98.3643 65.5327 97.8653C85.3408 91.2122 99.6194 72.4214 99.6194 50.2214C99.701 22.449 77.3347 0 49.851 0Z" fill="#24292F"/>
</svg>
