<svg width="100" height="100" viewBox="0 0 100 100" fill="none" xmlns="http://www.w3.org/2000/svg">
<path d="M87.81 34.09C87.23 34.54 76.99 40.31 76.99 53.14C76.99 67.98 90.02 73.23 90.41 73.36C90.35 73.68 88.34 80.55 83.54 87.55C79.26 93.71 74.79 99.86 67.99 99.86C61.19 99.86 59.44 95.91 51.59 95.91C43.94 95.91 41.22 99.99 35 99.99C28.78 99.99 24.44 94.29 19.45 87.29C13.67 79.07 9 66.3 9 54.18C9 34.74 21.64 24.43 34.08 24.43C40.69 24.43 46.2 28.77 50.35 28.77C54.3 28.77 60.46 24.17 67.98 24.17C70.83 24.17 81.07 24.43 87.81 34.09ZM64.41 15.94C67.52 12.25 69.72 7.13 69.72 2.01C69.72 1.3 69.66 0.58 69.53 0C64.47 0.19 58.45 3.37 54.82 7.58C51.97 10.82 49.31 15.94 49.31 21.13C49.31 21.91 49.44 22.69 49.5 22.94C49.82 23 50.34 23.07 50.86 23.07C55.4 23.07 61.11 20.03 64.41 15.94Z" fill="black"/>
</svg>
