<svg width="64" height="65" viewBox="0 0 64 65" fill="none" xmlns="http://www.w3.org/2000/svg">
<path d="M9.48742 45.0446C4.2558 45.0446 0 49.2988 0 54.5402C0 59.7632 4.2558 64.028 9.48742 64.028C14.7191 64.028 18.9748 59.7658 18.9748 54.5402C18.9748 49.2988 14.7191 45.0446 9.48742 45.0446Z" fill="currentColor"/>
<path d="M0.986355 20.9331C0.444518 20.9331 0 21.378 0 21.9255V33.9774C0 34.5197 0.444518 34.9619 0.986355 34.9619C16.4498 34.9619 29.0383 47.5561 29.0383 63.0381C29.0383 63.5778 29.4749 64.0253 30.0247 64.0253H42.074H42.1161C42.6658 64.0253 43.1077 63.5778 43.1077 63.0381L43.0603 62.7301C42.8867 39.6584 24.0723 20.9331 0.986355 20.9331Z" fill="currentColor"/>
<path d="M63.9448 62.7301C63.7738 28.1199 35.5903 0.0279541 0.986355 0.0279541C0.444517 0.0279541 0 0.472856 0 1.02043V13.4224C0 13.9673 0.444517 14.4096 0.986355 14.4096C27.7784 14.4096 49.5729 36.2256 49.5729 63.0407C49.5729 63.5804 50.0148 64.028 50.554 64.028H62.9505H63.0031C63.5423 64.028 64 63.5804 64 63.0407L63.9448 62.7301Z" fill="currentColor"/>
</svg>
